<svg xmlns="http://www.w3.org/2000/svg" viewBox="0 0 467.02 168.35"><defs><style>.cls-1{fill:#fff;}.cls-2{fill:#00dd16;}</style></defs><title>Asset 6</title><g id="Layer_2" data-name="Layer 2"><g id="design"><path class="cls-1" d="M290.72,108.12a4.41,4.41,0,0,0-.75-.62,1,1,0,0,1-.27-.27l-.19-.26a1,1,0,0,1-.19-.61c0-.12,0-.24,0-.36a8.92,8.92,0,0,0-.55-2.79c-.21-.58-.84-1.38-.66-2s.66-.47,1.06-.86c.82-.79.25-2-.38-2.67-2.56-2.87-6.48-3.66-10.16-4-2.26-.18-7.34-.33-6.87,3.21h0a.78.78,0,0,1-.78.88l-67.81-1.25a2.78,2.78,0,0,1-2.72-2.85l0-1.52a2.78,2.78,0,0,1,2.81-2.69l49.08-.24c3.41,0,9,.55,12.24-1.33,4-2.32,6.14-10.65-.81-10.83L62.7,72a3.41,3.41,0,0,0-3.5,3.31C59,81.09,61,84.56,67.05,86.69c5.61,2,11.91,1.07,17.79,1.15l33.67.47a2.42,2.42,0,0,1,2.38,2.49l0,1.85A2.42,2.42,0,0,1,118.38,95L28.51,93.43a11,11,0,0,0-1.83-2.56,10.75,10.75,0,0,0-1.51-1.29,3,3,0,0,1,.1-.47c.3-1,1-1.85,1.28-2.9.68-2.89-3.09-4.31-5.14-4.63-3.69-.58-17.54-.46-17.72,5.7,0,1,.74,1.56.51,2.48-.18.71-1.5,1.78-1.9,2.49A10.53,10.53,0,0,0,.93,98.31c0,.13,0,.26,0,.39a8.25,8.25,0,0,0,.29,2.41,7.65,7.65,0,0,0,1.12,2.38l-.76.6c-.64.5-1.49,1-1.61,1.89-.19,1.48,1.65,2.16,2.8,2.34,4.56.71,11.57,1.17,16.36-.1a46.34,46.34,0,0,0,4.42-1.63L269.87,111a1,1,0,0,1,.74.34l.47.51a1,1,0,0,1,.17,1.22l-.06.12a2.08,2.08,0,0,0-.21,1.75c.68,1.65,2.12,2.21,3.75,2.66,2.38.67,6.33.58,8.56-1a2.12,2.12,0,0,0,1-1.48,1.21,1.21,0,0,0,0-.38c-.05-.67.82-1.19,1.59-1.67a1,1,0,0,1,.6-.16,5.62,5.62,0,0,1,1.49.56l.11,0a2.46,2.46,0,0,0,1.18.38c1.43,0,2.3-2.19,2.38-3.26A3.16,3.16,0,0,0,290.72,108.12Z"/><rect x="163.52" y="60.34" width="0.72" height="58.98" transform="translate(69.33 251.04) rotate(-88.34)"/><path d="M16.6,89.26a8.4,8.4,0,0,0-5.62.58c-2.56,1.27-5.35,4.8-3.93,8.39A5.63,5.63,0,0,0,13.78,102c4.66-.91,6.92-3.83,7.16-6.53C21.29,91.63,19.22,90,16.6,89.26Z"/><path class="cls-1" d="M14.41,90.84c-.67-.34-1.32,1.21-1.68,1.76s-1.39-.09-1.87,0c-.93.16.06,1.19.82,1.57.94.48.24,1.29,0,1.91-.29.9-.15,1.61.35,1.65s1.07-.93,1.37-1.51.45-.71,1.31-.4c.46.16.94.48,1.42.31.7-.26.17-1.16-.49-1.67-.89-.69-1-.88-.94-1.86S14.88,91.08,14.41,90.84Z"/><path d="M7.06,88l-.42-.59a13.58,13.58,0,0,1,6.46-2.13,16.58,16.58,0,0,1,8.44,1.49l-.35.63a16.09,16.09,0,0,0-8-1.4A13,13,0,0,0,7.06,88Z"/><ellipse cx="278.88" cy="105.16" rx="5.5" ry="7.13" transform="translate(127.76 362.06) rotate(-80.2)"/><path class="cls-1" d="M279.16,102.82l-.08.1c-.41.44-.66.39-1.39.2-.41-.11-1.45-.15-1.62.19-.48,1,1.85,1.34,1.77,2.56a3.45,3.45,0,0,0,.15,1.35.73.73,0,0,0,.88.49c.36-.13.44-.57.56-.86l.21-.51c.44-1.1,1.54.09,2.45-.22a.48.48,0,0,0,.21-.82,3.16,3.16,0,0,0-1-.54c-1.25-.56-.45-2-1.37-2.39C279.34,102.14,279.34,102.53,279.16,102.82Z"/><path d="M286.26,100.11a15,15,0,0,0-5.21-2.76,15.65,15.65,0,0,0-6.66-.21l-.14-.71a16.21,16.21,0,0,1,7,.23,15.34,15.34,0,0,1,5.49,2.92Z"/><path d="M278.74,114.75a13.42,13.42,0,0,1-1.49-.11,13.6,13.6,0,0,1-3.45-1.11l.31-.65a12.92,12.92,0,0,0,3.23,1.05,13.57,13.57,0,0,0,2.91,0l.07.72S279.62,114.76,278.74,114.75Z"/><path class="cls-1" d="M294.53,12.92a2.49,2.49,0,0,0-1.24.36c-.62.22-1.34.65-2,.47-.79-.55-1.81-1.15-1.72-1.88a1.59,1.59,0,0,0,0-.38,2.16,2.16,0,0,0-.91-1.52c-2.16-1.65-6.1-1.9-8.51-1.34-1.65.39-3.11.88-3.87,2.5a2.1,2.1,0,0,0,.14,1.76,8.28,8.28,0,0,1,.4.84,11.07,11.07,0,0,0-1.35,1.3L51.78,9.48c0-.39.12-2,.09-2.37.73-1,2.29-1.51,2.05-2.87C53.7,3,52.75,2.3,51.32,1.56A15.73,15.73,0,0,0,44.66,0c-1.6-.06-4.1-.17-4.8,1.67a3,3,0,0,0,0,1.86,16.54,16.54,0,0,1,.56,1.68h-.17A11.85,11.85,0,0,0,33.84,7c-.11-.33.14-.89-.33-1.38a2.43,2.43,0,0,0-2.87-.28C26.78,7,24.81,10.27,24.71,16.51c-.06,4.31,3.52,5.33,5.21,4.87a2.48,2.48,0,0,1,1.59.77c1.6,1.8,3.94,2.15,7.21,2.2a11.79,11.79,0,0,0,6.42-1.78L124,24.5a1.4,1.4,0,0,1,1.36,1.43l-.05,3.88a1.4,1.4,0,0,1-1.45,1.38L66.71,29.54a3.43,3.43,0,0,0-3.52,3.37l-.13,8.7a3.42,3.42,0,0,0,3.36,3.47l201.13,3.51a4.56,4.56,0,0,0,4.65-4.42l.14-4.09a4.58,4.58,0,0,0-4.44-4.72l-61.27-1.77a1.76,1.76,0,0,1-1.7-1.79l0-3.54a1.75,1.75,0,0,1,1.8-1.73l68.82,1.68a.78.78,0,0,1,.75.91h0c-.62,3.52,4.46,3.59,6.72,3.51,3.69-.15,7.64-.77,10.33-3.53.66-.67,1.27-1.82.49-2.65-.38-.4-.89-.3-1-.9s.51-1.41.75-2a9.13,9.13,0,0,0,.67-2.77c0-.23,0-.46,0-.68.19-.22.36-.45.53-.68a5,5,0,0,0,.95-.69,3.16,3.16,0,0,0,1-2.48C296.74,15.21,296,13,294.53,12.92Z"/><path d="M29.14,18.11a10.67,10.67,0,0,1,2.13-9.17l.54.48a10,10,0,0,0-2,8.51Z"/><path d="M49.28,8.26a10.41,10.41,0,0,0-1.82-1.41,9.78,9.78,0,0,0-4.84-1.22l0-.72a10.45,10.45,0,0,1,5.2,1.33,11,11,0,0,1,2,1.52Z"/><path d="M43.11,10.15a10,10,0,0,0-5.61.46c-2.55,1-5.34,3.93-3.91,6.88,1.14,2.35,3.49,3.63,6.74,3.12,4.65-.74,6.91-3.13,7.15-5.35C47.81,12.11,45.74,10.74,43.11,10.15Z"/><path class="cls-1" d="M43.07,12.77c-.27-.57-1.79,0-2.42.17s-1-.82-1.4-1c-.8-.42-.74.76-.43,1.4.39.82-.66.93-1.23,1.2-.81.39-1.18.9-.82,1.2s1.41,0,2-.18.81-.19,1.25.47c.23.35.38.81.86,1,.69.22.89-.61.74-1.3-.21-.9-.21-1.11.52-1.65S43.27,13.18,43.07,12.77Z"/><rect x="164.49" y="-3.43" width="0.72" height="58.98" transform="translate(134.01 190.09) rotate(-88.34)"/><path class="cls-2" d="M70.83,43.34c-11.75-.17-19.69,3.88-24.06,5.15-9.39,2.74-17.74-.26-26.86.56-8.38.75-7.58,9.23.31,10.79,6.33,1.25,13.16,1.64,24.43,2.29,7.2.42,5.8,12.8,24.26,13.08L234.8,77.72c23.26.35,53.27,1.72,70.63,7.07C330,92.35,360.68,128,376.34,139s44.91,26.81,66,28.57c10,.84,15.74.55,18.2.73A6.07,6.07,0,0,0,467,162c-.41-9.86-1.24-23.09-3.79-29.12-1.71-4.07-9.54-2.6-15.53-3.11-13.66-1.17-35.37-8.45-49.83-19.46S356.23,70,329.34,58.05c-27.87-12.41-45.8-12.92-92.59-13.63C177.05,43.52,82.57,43.52,70.83,43.34Z"/><path d="M283.12,30.28a13.84,13.84,0,0,1-4.05-.7l.22-.69a12.83,12.83,0,0,0,5.84.56,10.52,10.52,0,0,0,4.88-2l.44.57a11.09,11.09,0,0,1-5.24,2.16A18.41,18.41,0,0,1,283.12,30.28Z"/><path d="M279.12,12.77l-.33-.64a10.38,10.38,0,0,1,3.75-.94,14.49,14.49,0,0,1,2.94.09l-.09.71a14.63,14.63,0,0,0-2.8-.09A9.66,9.66,0,0,0,279.12,12.77Z"/><ellipse cx="283.68" cy="20.49" rx="8.37" ry="6.46" transform="translate(-0.29 36.45) rotate(-7.35)"/><path class="cls-1" d="M285.24,20.44c0-.53.44-.77.85-1.3s.55-.64.29-1.19a.81.81,0,0,0-.73-.43c-.65,0-1.23.42-1.81.59-.92.27-.74-.52-1.4-1a.91.91,0,0,0-1.38.4c-.3.6.05.79.15,1.08.18.55.43.66-.13,1.09l-.51.39c-.72.54-1.08,1.09-.64,1.57s1.4-.07,1.95-.37c1.15-.61,1.09.44,2,1.07a1.11,1.11,0,0,0,1.5-.07c.42-.54.24-.77,0-1.27A1.14,1.14,0,0,1,285.24,20.44Z"/><path d="M293.86,18a2.84,2.84,0,0,0-.78-1.92l.42-.59a3.37,3.37,0,0,1,1.07,2.42Z"/></g></g></svg>