<svg xmlns="http://www.w3.org/2000/svg" viewBox="0 0 155.25 62.65"><defs><style>.cls-1{fill:#fff;}</style></defs><title>Asset 4</title><g id="Layer_2" data-name="Layer 2"><g id="design"><path d="M155,35.48a31.29,31.29,0,0,0-5.91-6.33,1.47,1.47,0,0,0-.24-1.11C137.88,11,118.3,2,98.58.31a94.41,94.41,0,0,0-15.32,0c-2.49.08-5,.27-7.44.59A40.89,40.89,0,0,0,62.94,3.67a92.06,92.06,0,0,0-25.31,10c-8.74,5.23-16.33,12.54-20.44,22-.71,1.64,1.24,3.09,2.35,2.28a1.66,1.66,0,0,0,3,1.09A74.2,74.2,0,0,1,43.13,17.08C36.4,23.91,31,32.06,26,40.19c-1.11,1.8,1.72,3.44,2.83,1.65C37.21,28.24,47.87,13.24,63,7L63.26,7a123.09,123.09,0,0,1,14.41-2.8c9.19.2,17.39,4.47,25.56,8.62a113.3,113.3,0,0,0,13.07,5.74c4,1.43,8.11,2.66,12.16,4A90.46,90.46,0,0,1,139.1,26.7c3.16,3.71,5.6,8.11,5.63,13.1a1.64,1.64,0,0,0,3.28,0,20.74,20.74,0,0,0-2.3-9.17,27.72,27.72,0,0,1,6.42,6.5C153.33,38.84,156.16,37.21,155,35.48Zm-47.8-24.39C102.07,8.58,97,5.81,91.69,3.78A75.44,75.44,0,0,1,124.5,14.63a71.57,71.57,0,0,1,8.34,6C124.23,17.48,115.41,15.17,107.16,11.09Z"/><path class="cls-1" d="M38.22,50.51a6.88,6.88,0,0,0-.7-1.13,32.17,32.17,0,0,0-4.79-5,17.41,17.41,0,0,0-3.61-2.73c-1.94-1-4-1.69-6-2.44-2.63-1-5.27-1.91-7.9-2.87s-5-1.85-7.42-2.88a2.18,2.18,0,0,0-1.42-.32c-.55.18-.87.89-1,1.38A1.34,1.34,0,0,0,5.5,36c.33.4.34.39.14.88-.86,2.12-2.38,4.72-3.4,6.76-.49,1-1.31,2.62-.26,3,.41.16,2,1,2.39,1.18l.72.35c.28.34-.18,1-.37,1.32s-.44.27-.88.12-1.48-.88-2-.69A3,3,0,0,0,.6,50.5C.36,51.06-.19,52.4.07,53c.18.45,3.72,2.09,5.11,2.71,3,1.31,7.91,3.58,10.89,4.91a37.8,37.8,0,0,0,4.42,1.84,2.5,2.5,0,0,0,3.06-.94c2-3.13,3.62-6.47,5.72-9.53a10.81,10.81,0,0,1,.82-1.15,39,39,0,0,1,3.5,2.67c.7.5,1.86,1.39,2.79,1a4.17,4.17,0,0,0,2-2.19A2.41,2.41,0,0,0,38.22,50.51Z"/><path d="M14.46,51.05l-.88-.44a49.67,49.67,0,0,0,2.59-6.15l.93.31A50.14,50.14,0,0,1,14.46,51.05Z"/><path d="M8.57,48.76l-.88-.44a37.58,37.58,0,0,0,2.59-6.47l.94.29A39.82,39.82,0,0,1,8.57,48.76Z"/></g></g></svg>