<svg xmlns="http://www.w3.org/2000/svg" viewBox="0 0 208.25 211.04"><defs><style>.cls-1,.cls-4{fill:#fff;}.cls-2{font-size:18px;font-family:GTAmericaMono-Medium, GT America Mono;font-weight:500;}.cls-3{fill:none;}.cls-3,.cls-4{stroke:#00de00;stroke-miterlimit:10;stroke-width:2px;}</style></defs><g id="Layer_2" data-name="Layer 2"><g id="design"><rect class="cls-1" width="208.25" height="207.98"/><text class="cls-2" transform="translate(42.74 194.37)">ABS Plastic</text><line class="cls-3" y1="166.04" x2="208.25" y2="166.04"/><line class="cls-3" x1="49.94" y1="80.99" x2="49.94" y2="47.99"/><polyline class="cls-3" points="22.25 24.99 50.29 46.92 78.75 24.99 106.36 46.92 134.4 24.99 162.48 46.92 190.94 24.99"/><circle class="cls-4" cx="22.29" cy="24.81" r="7.32"/><circle class="cls-4" cx="50.66" cy="46.81" r="7.32"/><circle class="cls-4" cx="78.29" cy="24.81" r="7.32"/><circle class="cls-4" cx="106.66" cy="46.81" r="7.32"/><circle class="cls-4" cx="134.29" cy="24.81" r="7.32"/><circle class="cls-4" cx="162.66" cy="46.81" r="7.32"/><circle class="cls-4" cx="190.29" cy="24.81" r="7.32"/><polygon class="cls-3" points="77.97 129.1 77.97 98.3 51.3 82.9 24.63 98.3 24.63 129.09 51.3 144.5 77.97 129.1"/><circle class="cls-4" cx="50.66" cy="83.37" r="7.32"/><circle class="cls-4" cx="51.02" cy="144.55" r="7.32"/><circle class="cls-4" cx="24.57" cy="129.67" r="7.32"/><circle class="cls-4" cx="24.57" cy="99.08" r="7.32"/><circle class="cls-4" cx="77.48" cy="129.67" r="7.32"/><circle class="cls-4" cx="77.48" cy="99.08" r="7.32"/></g></g></svg>