<svg xmlns="http://www.w3.org/2000/svg" viewBox="0 0 959.25 310.49"><g id="Layer_2" data-name="Layer 2"><g id="design"><path d="M633.76,140.89a31,31,0,0,0-5.91-6.32,1.49,1.49,0,0,0-.23-1.11c-10.93-17.06-30.52-26.08-50.24-27.74a95.56,95.56,0,0,0-15.32,0c-2.49.08-5,.27-7.44.59a40.91,40.91,0,0,0-12.88,2.78,92.16,92.16,0,0,0-25.31,10c-8.74,5.23-16.33,12.55-20.44,22-.71,1.63,1.24,3.08,2.35,2.27a1.66,1.66,0,0,0,3,1.09,74.32,74.32,0,0,1,20.55-21.94c-6.73,6.83-12.11,15-17.11,23.11-1.1,1.8,1.72,3.45,2.83,1.65,8.36-13.59,19-28.6,34.16-34.8l.25-.08a123.47,123.47,0,0,1,14.41-2.79c9.2.19,17.39,4.46,25.57,8.61a110.73,110.73,0,0,0,13.06,5.74c4,1.43,8.11,2.67,12.16,4a89.11,89.11,0,0,1,10.64,4.16c3.16,3.72,5.6,8.11,5.64,13.1a1.64,1.64,0,0,0,3.27,0,20.74,20.74,0,0,0-2.3-9.17,27.91,27.91,0,0,1,6.42,6.5C632.13,144.26,635,142.62,633.76,140.89ZM586,116.51c-5.09-2.52-10.17-5.29-15.47-7.32A75.57,75.57,0,0,1,603.3,120a71.57,71.57,0,0,1,8.34,6C603,122.89,594.21,120.59,586,116.51Z"/><path d="M517,155.92a6.63,6.63,0,0,0-.7-1.13,32.62,32.62,0,0,0-4.79-5,17,17,0,0,0-3.61-2.72,61.33,61.33,0,0,0-6-2.45c-2.62-1-5.27-1.91-7.9-2.87s-5-1.85-7.42-2.88a2.24,2.24,0,0,0-1.42-.31c-.54.17-.87.88-1,1.37a1.38,1.38,0,0,0,.16,1.45c.33.39.34.38.14.88-.86,2.12-2.38,4.71-3.4,6.76-.49,1-1.31,2.61-.25,3,.4.16,2,1,2.38,1.18.16.06.65.3.72.34.28.35-.18,1-.37,1.33s-.44.26-.87.11-1.49-.88-2-.68a2.84,2.84,0,0,0-1.24,1.56c-.25.55-.8,1.89-.54,2.53.18.44,3.72,2.09,5.12,2.7,3,1.32,7.9,3.59,10.88,4.91a35.65,35.65,0,0,0,4.43,1.84,2.49,2.49,0,0,0,3.05-.93c2-3.14,3.62-6.47,5.72-9.54a13.42,13.42,0,0,1,.83-1.15,38.52,38.52,0,0,1,3.49,2.68c.7.49,1.87,1.38,2.79,1a4.1,4.1,0,0,0,2-2.19A2.42,2.42,0,0,0,517,155.92Z" style="fill:#fff"/><path d="M493.26,156.46l-.88-.43a49.74,49.74,0,0,0,2.59-6.16l.93.31A50.14,50.14,0,0,1,493.26,156.46Z"/><path d="M487.37,154.17l-.88-.44a37.44,37.44,0,0,0,2.59-6.46l.94.28A39.82,39.82,0,0,1,487.37,154.17Z"/><path d="M625.33,128.49l-6.07,3.71s1.58-12.85,1.58-17-8-7.07-8.34-3.8c-.5,4.24-3,27.21-3.6,32.23h-.07l-.66-.14c-2.51-6.94-9.78-12-18.35-12-9.29,0-17,5.89-18.88,13.74h-.09l-1.47,8.44a15.74,15.74,0,0,0,2.81,12h0a15.79,15.79,0,0,0,8.5,5.87L632,185.85l7.85-52.34Z"/><path d="M918.77,169l16.75,12.32a6.52,6.52,0,0,0,2.92.19l2.45-1.24c2-.73,3-2.13,4.05-4l1-1.79a1.55,1.55,0,0,1,2.35-.41l1.76,1.46a1.57,1.57,0,0,1,.53,1.56L946.91,187l-14.63,17.11a3.5,3.5,0,0,1-4.71.64l-16.32-11.54-10.94,8.45-3.13-9.43Z"/><path d="M933.68,102.69l15.63,1.3a4.13,4.13,0,0,1,3.63,3l6.14,20.8a4.16,4.16,0,0,1-.66,3.66L956,134.63a4.15,4.15,0,0,1-3.31,1.66h-2.26a4.14,4.14,0,0,1-3.88-2.69h0a4.13,4.13,0,0,0-3.67-2.68l-7.23-.35a4.15,4.15,0,0,1-3.91-3.61l-2.51-19.62A4.14,4.14,0,0,1,933.68,102.69Z"/><ellipse cx="906.66" cy="28" rx="14.72" ry="17.35" transform="translate(708.4 913.16) rotate(-79.14)"/><path d="M877.88,43.05,888,30.29V24.4l-10.8-5.89-4,5.16a3.27,3.27,0,0,1-3.26,1.2h0a3.27,3.27,0,0,1-2.48-2.42l-2.75-11.28A3.25,3.25,0,0,1,865,8.94l2.94-5.89a3.25,3.25,0,0,1,2.5-1.77L880.22,0a3.22,3.22,0,0,1,2.29.57l20.23,14.31,14.39,6.22L925,34.54l-5.49,7.52a12.3,12.3,0,0,1-9,5l-2.84.22-10.8,11.12Z"/><path d="M691.35,36.5l-4.92-7.16a3.86,3.86,0,0,1-.59-2.94l.91-4.33a3.8,3.8,0,0,1,2.19-2.71l8.59-3.79a3.75,3.75,0,0,1,1.55-.33h6.52a3.83,3.83,0,0,1,3,1.42L716.92,27,691.35,36.5"/><path d="M939.38,118c-1-5.42-3.37-14.74-5.73-19.66-1.73-3.62-2.3-5.24-2.4-6.94a18.52,18.52,0,0,0-23.89-27.8c-5-5.52-10.79-14.11-20.65-21.5-34-25.52-65.74-33.95-106-32.72-32.06,1-44.27,3.41-65.75,12.43-11.15,4.69-29.45,14.07-43.79,28.92a18.52,18.52,0,0,0-26.62,25.68c-9.36,11.27-16.33,31.3-18.57,45.27-3.49,21.81-2,52.3,3.26,73.85,38.09-.83,72.85-1.76,109.92-2.62,34.63-.8,69.42-1,104-2.29,12.07-.43,24.6-.94,36.64-2,3.6,8.51,3.08,9.14,8.18,21.59,2.35,5.73,12.54,6.53,14.72,0,1.64-4.9-2.12-9.12-1-13s4.9-6.27,8-8.6C924.08,177.66,932.18,167,936.76,151,939.42,141.72,941.34,128.76,939.38,118Z" style="fill:#fff"/><ellipse cx="824.81" cy="111.61" rx="60.23" ry="77.25" transform="translate(418.8 838.2) rotate(-68.51)"/><ellipse cx="653.17" cy="58.23" rx="7.13" ry="5.74" transform="translate(150.16 478.94) rotate(-45)"/><path d="M780.39,48l10.38,30.73a.33.33,0,0,0,.65,0l8.92-37.24Z" style="fill:#fff"/><path d="M748,86.78l27.48,11.08a.33.33,0,0,0,.36-.54l-26-26.62L748,86.78" style="fill:#fff"/><path d="M766.64,59.73l18.42,24.16a.33.33,0,0,0,.55-.33l-8.23-35.18-10.91,6.74Z" style="fill:#fff"/><path d="M755.72,72.83l24.73,16.31a.33.33,0,0,0,.46-.45L762,57.43l-6.29,15.4" style="fill:#fff"/><path d="M793.88,134.63l-37.71,2.22,7.28,11.66L794,135.26A.33.33,0,0,0,793.88,134.63Z" style="fill:#fff"/><path d="M748.92,118.33l29.57-1.78a.33.33,0,0,0,.1-.64l-34.53-12.36,5.25,15.31" style="fill:#fff"/><path d="M742.93,100.91l29.13,5.41a.33.33,0,0,0,.24-.6L741.54,84.78l1.39,16.13" style="fill:#fff"/><path d="M751.81,135.51,780.19,127c5.59-1,5.55-1.52,5.2-1.56l-36.94-4.58,2,14.24Z" style="fill:#fff"/><path d="M779.73,159.78l23.55-18a.33.33,0,0,0-.28-.58L766.83,150l12.9,9.77" style="fill:#fff"/><path d="M855.17,150.37l-17,27.76,11.74.35,5.92-27.86A.33.33,0,0,0,855.17,150.37Z" style="fill:#fff"/><path d="M816.4,176.87l13.68-25a.34.34,0,0,0-.47-.46l-32,20.64,17.1,4.77" style="fill:#fff"/><path d="M795.91,169.76l22.53-19.24a.33.33,0,0,0-.31-.57L781.52,160.7l14.39,9.06" style="fill:#fff"/><path d="M834,181l9.65-28a.33.33,0,0,0-.56-.33L817.84,180,834,181" style="fill:#fff"/><path d="M873.1,117.75l22.18,31.72L901.16,137l-27.58-19.7A.33.33,0,0,0,873.1,117.75Z" style="fill:#fff"/><path d="M881.43,165.54,868.31,139a.33.33,0,0,0-.63.16l3,37.18,10.76-10.78" style="fill:#fff"/><path d="M867.51,177.12l-4.76-29.24a.33.33,0,0,0-.65,0l-9.3,30.48,14.71-1.21" style="fill:#fff"/><path d="M892.81,151.74l-19.14-22.61a.33.33,0,0,0-.57.31l10.59,35.68,9.12-13.38" style="fill:#fff"/><path d="M844,80.67l38.71-.31L877,70.09,843.92,80A.33.33,0,0,0,844,80.67Z" style="fill:#fff"/><path d="M896.42,97.79l-29.61-.88a.33.33,0,0,0-.15.63l33.62,16-3.86-15.71" style="fill:#fff"/><path d="M902.16,117.63l-28.32-10a.34.34,0,0,0-.34.56l27.31,25.3,1-16.16" style="fill:#fff"/><path d="M887.15,80.83,858.2,87.11a.33.33,0,0,0,0,.65l36.48,7.39-7.54-14.32" style="fill:#fff"/><path d="M797.63,75.66l24-29-19-2.95-5.55,31.6A.33.33,0,0,0,797.63,75.66Z" style="fill:#fff"/><path d="M842.09,50.68,821.66,72.14a.33.33,0,0,0,.37.53l34.34-14.36-14.28-7.63" style="fill:#fff"/><path d="M860.55,58.4,834.73,72.92a.33.33,0,0,0,.19.62l37.7-5.29L860.55,58.4" style="fill:#fff"/><path d="M824.58,46,809.92,71.74a.33.33,0,0,0,.49.43L840.28,50l-15.7-4" style="fill:#fff"/><path d="M852.93,58.72c-1.21-.57-2.45-1.13-3.68-1.65-1.75-.75-3.55-1.45-5.34-2.09a99,99,0,0,0-11.37-3.34c-1.57-.35-3.17-.68-4.74-1l.17-1c1.59.28,3.2.6,4.79,1a100.8,100.8,0,0,1,11.48,3.36c1.81.65,3.63,1.36,5.39,2.12,1.25.53,2.5,1.09,3.72,1.67Z"/><path d="M786.06,53.64l-.33-.93A77.65,77.65,0,0,1,809,48.38c2.69-.1,5.43-.07,8.16.09l-.05,1c-2.7-.16-5.42-.19-8.07-.09A76.41,76.41,0,0,0,786.06,53.64Z"/><path d="M765.12,141.6a69.7,69.7,0,0,1-14.42-27.67,50.54,50.54,0,0,1,1-28.58A48.4,48.4,0,0,1,760,70.23l.76.62a47.26,47.26,0,0,0-8.21,14.81,49.64,49.64,0,0,0-.94,28A68.72,68.72,0,0,0,765.88,141Z"/><path d="M805.38,169.18a96.24,96.24,0,0,1-29.57-16.88l.63-.75a95.23,95.23,0,0,0,29.27,16.7Z"/><path d="M898,137.88l-.93-.32a47.75,47.75,0,0,0,2.05-8.69l1,.13A49,49,0,0,1,898,137.88Z"/><path d="M899.51,120.82a55.1,55.1,0,0,0-3.25-17l.93-.33a56.14,56.14,0,0,1,3.3,17.3Z"/><path d="M879.56,77.61a87,87,0,0,0-9.08-8.11,94,94,0,0,0-10.58-7.12l.49-.85a95,95,0,0,1,10.69,7.19,89,89,0,0,1,9.18,8.2Z"/><path d="M846.37,138.9l-.13-1c7.41-1,14.22-6.43,16.19-13,2.21-7.4.57-15.75-4.63-23.53S844.2,87.18,834.34,83.5c-17.49-6.54-35.5-3-42.82,8.49l-.82-.53c7.56-11.85,26.06-15.58,44-8.88,10,3.75,18.54,10.25,23.92,18.3s7.06,16.67,4.76,24.35C861.26,132.25,854.27,137.87,846.37,138.9Z" style="fill:#fff"/><path d="M797.49,127.75a34.26,34.26,0,0,1-10-18.68l1-.17A33.29,33.29,0,0,0,798.17,127Z" style="fill:#fff"/><path d="M651.74,59.68h0Z" style="fill:#fff"/><path d="M652.2,59.75h0l.06,0h0Z" style="fill:#fff"/><path d="M652.36,59.84h0l0,0h0Z" style="fill:#fff"/><path d="M655.32,55.53c-1,.25-1.27,1-2,.76-.54-.18-1.41-2-2-1.91-1.26.17,0,2.08,0,2.82-.08,1-1.23,1.48-1.81,2.22-.73,1,.54,1,1.69.59s1.57.08,2.26.85c1.19,1.3,1.6.36,1.19-.74-.77-2,1.12-2.34,1.72-3.9C656.39,55.93,656.34,55.27,655.32,55.53Z" style="fill:#fff"/><ellipse cx="909.26" cy="27.39" rx="6.73" ry="8.36" transform="translate(396.45 778.74) rotate(-57.41)" style="fill:#fff"/><path d="M907.23,26.12h0s0,.05,0,.06v-.05Z" style="fill:#fff"/><path d="M907.28,26.65h0a.32.32,0,0,0,0,.08v-.07Z" style="fill:#fff"/><path d="M907.21,26.86h0s0,0,0,0v0Z" style="fill:#fff"/><path d="M912.89,29.17c-.55-1.1-1.49-1.2-1.39-2.14.07-.67,1.94-2.13,1.69-2.82-.52-1.39-2.38.59-3.24.7-1.16.15-2-1-3-1.51-1.28-.6-1.28.86-.57,2.08a2.17,2.17,0,0,1-.08,2.8c-1.2,1.68,0,1.92,1.14,1.17,2.15-1.39,3,.7,4.9,1C912.7,30.49,913.44,30.27,912.89,29.17Z"/><path d="M905.76,39.44c-6-1.06-10.72-6.9-11.36-11.7a10.72,10.72,0,0,1,2.08-8.24l.74.65-.37-.33.37.33a9.86,9.86,0,0,0-1.85,7.46c.6,4.45,5,9.88,10.56,10.87Z" style="fill:#fff"/><rect x="949.85" y="123.35" width="0.98" height="9.51" transform="translate(757.15 1067.38) rotate(-86.05)" style="fill:#fff"/><rect x="923.08" y="191.25" width="16.24" height="0.98" transform="translate(247.68 852.57) rotate(-55.67)" style="fill:#fff"/><ellipse cx="892.03" cy="203.53" rx="5.74" ry="7.13" transform="translate(199.25 801.2) rotate(-53.64)"/><path d="M894.27,203.92v0c-.22-.54-.1-1,.51-1.88.49-.7.36-1.79-.85-1.31-1,.41-1.56,1.55-2.9.25-.47-.47-1.37-1.21-1.69-.47s.76,1.63,1,2.34c.29,1,0,1.33-.61,2-.84,1,.61,1.46,1.31.87a2.43,2.43,0,0,1,1.78-.45c.59.12,1.36,1.2,2,.65S894.53,204.49,894.27,203.92Z" style="fill:#fff"/><path d="M890.68,200.84s0,0,0,0Z" style="fill:#fff"/><polygon points="890.68 200.84 890.68 200.84 890.68 200.84 890.68 200.84 890.68 200.84" style="fill:#fff"/><ellipse cx="923.4" cy="76.21" rx="5.74" ry="7.13" transform="translate(314.56 774.63) rotate(-53.64)"/><path d="M925.65,76.61v0c-.23-.54-.1-1,.51-1.88.49-.7.36-1.79-.85-1.3-1,.4-1.56,1.54-2.9.24-.47-.46-1.37-1.21-1.69-.47s.75,1.63,1,2.34c.3,1,0,1.33-.6,2-.84,1,.6,1.45,1.3.87a2.45,2.45,0,0,1,1.78-.46c.6.12,1.36,1.2,2,.65S925.9,77.17,925.65,76.61Z" style="fill:#fff"/><path d="M922.06,73.52s0,0,0,0Z" style="fill:#fff"/><polygon points="922.06 73.52 922.06 73.52 922.06 73.52 922.06 73.52 922.06 73.52" style="fill:#fff"/><path d="M585.68,158a10.74,10.74,0,0,1-7.31-9.87c0-5.91,5.36-10.71,11.94-10.71s11.94,4.8,11.94,10.71a10.29,10.29,0,0,1-4.35,8.27l-.58-.79a9.33,9.33,0,0,0,3.95-7.48c0-5.36-4.92-9.73-11-9.73s-11,4.37-11,9.73a9.76,9.76,0,0,0,6.68,9Z" style="fill:#fff"/><path d="M593.12,148.36v0c-.35-.71-.22-1.35.52-2.57.6-1,.33-2.43-1.25-1.68-1.33.63-2,2.2-3.86.57-.67-.58-1.94-1.51-2.3-.49s1.14,2.13,1.48,3.06c.48,1.32.06,1.78-.64,2.71-1,1.37.93,1.9,1.82,1.06a3.24,3.24,0,0,1,2.34-.76c.81.11,1.93,1.49,2.77.7S593.51,149.1,593.12,148.36Z" style="fill:#fff"/><path d="M588.05,144.52s0,0,0,0Z" style="fill:#fff"/><polygon points="588.05 144.52 588.05 144.52 588.05 144.52 588.05 144.52 588.05 144.52" style="fill:#fff"/><path d="M624.71,191l-3.23,8.46a18.39,18.39,0,0,0-1,9.32l2.87,19.09-6.51,1a4,4,0,0,0-3.33,4.57l11.58,73.63a4,4,0,0,0,4.14,3.38l260.64-12.33a19.05,19.05,0,0,0,9.77-3.26s8.66-11,8.83-11.15a5.84,5.84,0,0,0,1.7-5.95l-29.93-94.26a4.46,4.46,0,0,0-4.32-3L632,185.9A8,8,0,0,0,624.71,191Z"/><rect x="642.64" y="287.02" width="260.56" height="0.98" transform="translate(-12.63 36.54) rotate(-2.69)" style="fill:#fff"/><rect x="890.43" y="286.24" width="14.38" height="0.98" transform="translate(79.64 754.54) rotate(-47.48)" style="fill:#fff"/><rect x="881.8" y="286.56" width="14.38" height="0.98" transform="translate(76.6 748.28) rotate(-47.48)" style="fill:#fff"/><rect x="873.09" y="287.21" width="14.38" height="0.98" transform="translate(73.3 742.07) rotate(-47.48)" style="fill:#fff"/><rect x="864.46" y="287.53" width="14.38" height="0.98" transform="translate(70.27 735.81) rotate(-47.48)" style="fill:#fff"/><rect x="855.91" y="287.53" width="14.38" height="0.98" transform="translate(67.5 729.51) rotate(-47.48)" style="fill:#fff"/><rect x="847.12" y="288.5" width="14.38" height="0.98" transform="translate(63.93 723.34) rotate(-47.48)" style="fill:#fff"/><rect x="838.13" y="288.82" width="14.38" height="0.98" transform="translate(60.78 716.82) rotate(-47.48)" style="fill:#fff"/><rect x="829.5" y="289.14" width="14.38" height="0.98" transform="translate(57.75 710.56) rotate(-47.48)" style="fill:#fff"/><rect x="820.87" y="289.46" width="14.38" height="0.98" transform="translate(54.71 704.31) rotate(-47.48)" style="fill:#fff"/><rect x="812.15" y="290.11" width="14.38" height="0.98" transform="translate(51.41 698.09) rotate(-47.48)" style="fill:#fff"/><rect x="803.52" y="290.43" width="14.38" height="0.98" transform="translate(48.38 691.84) rotate(-47.48)" style="fill:#fff"/><rect x="794.97" y="290.43" width="14.38" height="0.98" transform="translate(45.61 685.54) rotate(-47.48)" style="fill:#fff"/><rect x="786.18" y="291.4" width="14.38" height="0.98" transform="translate(42.04 679.37) rotate(-47.48)" style="fill:#fff"/><rect x="777.55" y="291.72" width="14.38" height="0.98" transform="translate(39.01 673.11) rotate(-47.48)" style="fill:#fff"/><rect x="768.92" y="292.04" width="14.38" height="0.98" transform="translate(35.97 666.85) rotate(-47.48)" style="fill:#fff"/><rect x="760.2" y="292.69" width="14.38" height="0.98" transform="translate(32.67 660.64) rotate(-47.48)" style="fill:#fff"/><rect x="751.57" y="293.01" width="14.38" height="0.98" transform="translate(29.63 654.38) rotate(-47.48)" style="fill:#fff"/><rect x="743.02" y="293.01" width="14.38" height="0.98" transform="translate(26.86 648.08) rotate(-47.48)" style="fill:#fff"/><rect x="734.31" y="293.65" width="14.38" height="0.98" transform="translate(23.56 641.87) rotate(-47.48)" style="fill:#fff"/><rect x="725.68" y="293.98" width="14.38" height="0.98" transform="translate(20.53 635.61) rotate(-47.48)" style="fill:#fff"/><rect x="717.05" y="294.3" width="14.38" height="0.98" transform="translate(17.49 629.36) rotate(-47.48)" style="fill:#fff"/><rect x="708.34" y="294.94" width="14.38" height="0.98" transform="translate(14.19 623.14) rotate(-47.48)" style="fill:#fff"/><rect x="699.71" y="295.27" width="14.38" height="0.98" transform="translate(11.16 616.89) rotate(-47.48)" style="fill:#fff"/><rect x="691.16" y="295.27" width="14.38" height="0.98" transform="translate(8.39 610.59) rotate(-47.48)" style="fill:#fff"/><rect x="682.36" y="296.23" width="14.38" height="0.98" transform="translate(4.82 604.42) rotate(-47.48)" style="fill:#fff"/><rect x="673.73" y="296.56" width="14.38" height="0.98" transform="translate(1.79 598.16) rotate(-47.48)" style="fill:#fff"/><rect x="665.1" y="296.88" width="14.38" height="0.98" transform="translate(-1.25 591.9) rotate(-47.48)" style="fill:#fff"/><rect x="656.39" y="297.52" width="14.38" height="0.98" transform="translate(-4.55 585.69) rotate(-47.48)" style="fill:#fff"/><rect x="647.76" y="297.85" width="14.38" height="0.98" transform="translate(-7.58 579.43) rotate(-47.48)" style="fill:#fff"/><rect x="639.21" y="297.85" width="14.38" height="0.98" transform="translate(-10.35 573.13) rotate(-47.48)" style="fill:#fff"/><path d="M396.68,219.46a6.56,6.56,0,0,0-1.05-.84,1.37,1.37,0,0,1-.37-.35l-.26-.35a1.39,1.39,0,0,1-.28-.84c0-.16,0-.32,0-.48a12.59,12.59,0,0,0-.81-3.79c-.3-.79-1.17-1.87-.95-2.74s.9-.65,1.43-1.19c1.1-1.1.31-2.68-.56-3.63-3.57-3.87-8.93-4.86-13.95-5.2-3.09-.2-10-.3-9.31,4.53h0a1,1,0,0,1-1.05,1.21L277,205.5a3.76,3.76,0,0,1-3.76-3.83l0-2.07a3.79,3.79,0,0,1,3.78-3.74L344,194.52c4.65-.09,12.33.57,16.68-2.06,5.35-3.25,8.15-14.66-1.34-14.76L84.84,174.88a4.67,4.67,0,0,0-4.72,4.6c-.12,7.89,2.62,12.59,11,15.37,7.69,2.56,16.26,1.21,24.29,1.2l45.94-.05a3.29,3.29,0,0,1,3.3,3.34l0,2.53a3.3,3.3,0,0,1-3.31,3.26l-122.64-.29a14.6,14.6,0,0,0-2.55-3.46A14.15,14.15,0,0,0,34,199.66c0-.24.09-.46.14-.65.38-1.39,1.37-2.54,1.69-4,.86-4-4.31-5.81-7.12-6.21-5-.71-23.94-.26-24,8.15,0,1.38,1,2.1.74,3.36-.23,1-2,2.46-2.54,3.45a14.33,14.33,0,0,0-1.75,8.28c0,.19,0,.37.07.54a11.47,11.47,0,0,0,.44,3.28,10.36,10.36,0,0,0,1.59,3.23l-1,.83c-.87.7-2,1.4-2.15,2.62-.24,2,2.29,2.91,3.86,3.13,6.23.87,15.81,1.35,22.32-.48a62.14,62.14,0,0,0,6-2.31l336.1.87a1.36,1.36,0,0,1,1,.45q.31.36.66.69a1.41,1.41,0,0,1,.26,1.66l-.09.17a2.83,2.83,0,0,0-.25,2.4c1,2.23,2.94,3,5.18,3.55,3.26.85,8.64.66,11.66-1.5a3,3,0,0,0,1.29-2.05,2.25,2.25,0,0,0,0-.52c-.09-.91,1.1-1.64,2.14-2.31a1.23,1.23,0,0,1,.81-.22,7.24,7.24,0,0,1,2,.73l.15.07a3.41,3.41,0,0,0,1.62.48c2,0,3.09-3,3.17-4.49A4.32,4.32,0,0,0,396.68,219.46Z" style="fill:#fff"/><rect x="222.76" y="156.9" width="0.98" height="80.48" transform="translate(23.04 417.64) rotate(-89.21)"/><path d="M22.29,199.4a11.46,11.46,0,0,0-7.64.9c-3.47,1.79-7.21,6.67-5.2,11.53,1.61,3.88,4.84,6,9.26,5,6.34-1.34,9.37-5.37,9.64-9.06C28.75,202.54,25.89,200.31,22.29,199.4Z"/><path d="M19.34,201.6c-.92-.46-1.77,1.68-2.25,2.44-.58.92-1.9-.09-2.55,0-1.27.23.11,1.62,1.14,2.13,1.31.64.36,1.75.1,2.6-.38,1.24-.17,2.2.51,2.24s1.45-1.28,1.84-2.08.6-1,1.77-.58c.64.21,1.3.64,2,.39.94-.36.21-1.57-.71-2.27-1.23-.92-1.45-1.17-1.33-2.51S20,201.92,19.34,201.6Z" style="fill:#fff"/><path d="M9.25,197.86l-.57-.79a18.43,18.43,0,0,1,8.76-3c7.09-.49,11.37,1.76,11.55,1.86l-.47.86a22.09,22.09,0,0,0-11-1.74A17.88,17.88,0,0,0,9.25,197.86Z"/><ellipse cx="380.46" cy="215.67" rx="7.5" ry="9.73" transform="translate(108.3 558.01) rotate(-81.06)"/><path d="M380.79,212.47a1.13,1.13,0,0,1-.1.13c-.55.62-.89.56-1.89.3-.57-.14-2-.16-2.21.3-.63,1.37,2.55,1.79,2.47,3.45a5,5,0,0,0,.22,1.84,1,1,0,0,0,1.22.65c.49-.18.59-.78.75-1.19l.27-.69c.57-1.51,2.1.09,3.34-.35a.66.66,0,0,0,.27-1.13,4.25,4.25,0,0,0-1.39-.71c-1.71-.73-.65-2.77-1.92-3.24C381,211.54,381,212.07,380.79,212.47Z" style="fill:#fff"/><path d="M390.42,208.63a20.07,20.07,0,0,0-7.17-3.66,21.58,21.58,0,0,0-9.08-.16l-.21-.95a21.87,21.87,0,0,1,9.56.17,20.77,20.77,0,0,1,7.55,3.86Z"/><path d="M380.46,228.75a18.36,18.36,0,0,1-2-.11,18.61,18.61,0,0,1-4.73-1.45l.41-.89a18.1,18.1,0,0,0,4.44,1.36,18.93,18.93,0,0,0,4,0l.12,1A19.67,19.67,0,0,1,380.46,228.75Z"/><path d="M399.91,89.5a3.42,3.42,0,0,0-1.7.51c-.84.31-1.81.92-2.66.68-1.09-.73-2.49-1.53-2.38-2.52a2.25,2.25,0,0,0,0-.52,3,3,0,0,0-1.26-2.06c-3-2.2-8.37-2.46-11.64-1.65-2.24.56-4.23,1.27-5.23,3.49a2.84,2.84,0,0,0,.23,2.39c.15.33.41.74.56,1.15A14.07,14.07,0,0,0,374,92.78l-305.39-3c0-.54.13-2.72.08-3.24,1-1.31,3.09-2.11,2.73-4C71.13,81,69.81,80,67.85,79a21.43,21.43,0,0,0-9.11-2c-2.19,0-5.61-.14-6.52,2.39a4.13,4.13,0,0,0,0,2.53,20.59,20.59,0,0,1,.8,2.29H52.8a16,16,0,0,0-8.68,2.54c-.16-.46.18-1.23-.48-1.89-1-1-2.31-1-3.92-.32-5.24,2.29-7.86,6.86-7.86,15.37,0,5.89,4.91,7.2,7.2,6.55a3.34,3.34,0,0,1,2.19,1c2.23,2.43,5.42,2.86,9.88,2.86a16.14,16.14,0,0,0,8.73-2.57l107.67,1a1.91,1.91,0,0,1,1.9,1.91V116a1.92,1.92,0,0,1-1.94,1.92l-78.06-1.07a4.66,4.66,0,0,0-4.73,4.67v11.87a4.67,4.67,0,0,0,4.66,4.67l274.47.63a6.26,6.26,0,0,0,6.26-6.13l.1-5.59a6.25,6.25,0,0,0-6.16-6.35l-83.62-1.15a2.4,2.4,0,0,1-2.36-2.4v-4.83a2.39,2.39,0,0,1,2.42-2.4l93.92.87a1.07,1.07,0,0,1,1,1.23h0c-.77,4.82,6.16,4.81,9.25,4.64,5-.27,10.4-1.19,14-5,.89-.93,1.7-2.51.62-3.62-.53-.54-1.22-.4-1.42-1.21s.67-1.94,1-2.72a12.36,12.36,0,0,0,.86-3.79c0-.31,0-.63,0-.94.25-.3.48-.61.71-.93a7.13,7.13,0,0,0,1.28-1A4.32,4.32,0,0,0,403,94C403,92.58,401.87,89.5,399.91,89.5Z" style="fill:#fff"/><path d="M37.93,102.06a14.56,14.56,0,0,1,2.72-12.55l.75.64a13.74,13.74,0,0,0-2.52,11.66Z"/><path d="M65.21,88.22a14,14,0,0,0-2.52-1.89,13.25,13.25,0,0,0-6.62-1.57v-1a14.37,14.37,0,0,1,7.13,1.7,16,16,0,0,1,2.71,2Z"/><path d="M56.83,90.92a13.69,13.69,0,0,0-7.64.74c-3.47,1.47-7.21,5.47-5.2,9.46,1.61,3.19,4.84,4.89,9.26,4.12,6.34-1.1,9.37-4.41,9.64-7.44C63.29,93.49,60.43,91.66,56.83,90.92Z"/><path d="M56.83,94.5c-.39-.78-2.44.07-3.3.27-1,.25-1.36-1.09-1.93-1.38-1.1-.55-1,1.06-.55,1.93.55,1.11-.89,1.28-1.66,1.66-1.1.55-1.59,1.25-1.1,1.65s1.94,0,2.76-.28,1.1-.27,1.71.61c.33.48.54,1.1,1.2,1.31.94.29,1.2-.86,1-1.78-.3-1.24-.3-1.51.68-2.27S57.11,95.05,56.83,94.5Z" style="fill:#fff"/><path d="M378.88,89.61l-.47-.86a14,14,0,0,1,5.1-1.37,19.94,19.94,0,0,1,4,.07l-.11,1a18.79,18.79,0,0,0-3.82-.06A13.3,13.3,0,0,0,378.88,89.61Z"/><path d="M384.69,113.42a18.63,18.63,0,0,1-5.53-.87l.28-.94a17.74,17.74,0,0,0,8,.64A14.3,14.3,0,0,0,394,109.4l.61.77a15,15,0,0,1-7.11,3A22.75,22.75,0,0,1,384.69,113.42Z"/><ellipse cx="385.26" cy="100.06" rx="11.42" ry="8.81" transform="matrix(0.99, -0.14, 0.14, 0.99, -10.34, 56.08)"/><path d="M387.38,100c0-.72.59-1.07,1.14-1.79.43-.57.74-.88.36-1.63a1.11,1.11,0,0,0-1-.58c-.88,0-1.66.61-2.45.85-1.26.39-1-.69-1.94-1.37a1.23,1.23,0,0,0-1.87.57c-.4.82.09,1.08.22,1.47.26.75.61.89-.15,1.49l-.69.54c-1,.75-1.45,1.51-.83,2.15.81.84,1.9-.11,2.65-.53,1.56-.87,1.5.56,2.7,1.41a1.48,1.48,0,0,0,2-.13c.57-.75.31-1.05,0-1.72A1.76,1.76,0,0,1,387.38,100Z" style="fill:#fff"/><path d="M399.1,96.44A4,4,0,0,0,398,93.83l.56-.81c.11.08,1.17.85,1.52,3.29Z"/><rect x="222.76" y="69.87" width="0.98" height="80.48" transform="translate(110.05 331.82) rotate(-89.21)"/><path d="M95.33,135.63c-16,0-26.78,5.7-32.71,7.53-12.76,3.92-24.21,0-36.64,1.31-11.41,1.2-10.15,12.75.65,14.72,8.67,1.57,18,2,33.37,2.61,9.83.42,8.18,17.34,33.37,17.34H319.76c31.73,0,72.71,1.25,96.51,8.18,33.69,9.82,76.22,55,97.81,69.69s61.84,35.66,90.63,37.62c13.72.93,21.49.42,24.84.61a8.27,8.27,0,0,0,8.73-8.72c-.76-13.46-2.17-31.48-5.77-39.66-2.43-5.52-13.08-3.35-21.26-3.92-18.65-1.31-48.42-10.8-68.38-25.52s-57.61-51.28-94.54-67.07c-38.28-16.35-62.75-16.68-126.61-16.68C240.26,133.67,111.36,135.63,95.33,135.63Z" style="fill:#00dd16"/></g></g></svg>