<svg xmlns="http://www.w3.org/2000/svg" viewBox="0 0 296.94 129.97"><defs><style>.cls-1{fill:#fff;}</style></defs><title>Asset 5</title><g id="Layer_2" data-name="Layer 2"><g id="design"><path d="M11.26,10.5,8,19a18.37,18.37,0,0,0-1,9.32L9.9,47.37l-6.52,1A4,4,0,0,0,.05,53l11.58,73.64A4,4,0,0,0,15.77,130l260.65-12.33a18.87,18.87,0,0,0,9.76-3.26s8.66-11,8.84-11.15a5.87,5.87,0,0,0,1.7-6L266.78,3a4.45,4.45,0,0,0-4.31-3L18.53,5.37A8,8,0,0,0,11.26,10.5Z"/><rect class="cls-1" x="29.18" y="106.5" width="260.56" height="0.98" transform="translate(-4.84 7.59) rotate(-2.69)"/><rect class="cls-1" x="276.98" y="105.72" width="14.38" height="0.98" transform="translate(13.84 243.87) rotate(-47.48)"/><rect class="cls-1" x="268.35" y="106.04" width="14.38" height="0.98" transform="translate(10.8 237.62) rotate(-47.48)"/><rect class="cls-1" x="259.63" y="106.68" width="14.38" height="0.98" transform="translate(7.5 231.4) rotate(-47.48)"/><rect class="cls-1" x="251" y="107.01" width="14.38" height="0.98" transform="translate(4.47 225.15) rotate(-47.48)"/><rect class="cls-1" x="242.45" y="107.01" width="14.38" height="0.98" transform="translate(1.69 218.84) rotate(-47.48)"/><rect class="cls-1" x="233.66" y="107.97" width="14.38" height="0.98" transform="translate(-1.87 212.68) rotate(-47.48)"/><rect class="cls-1" x="224.67" y="108.3" width="14.38" height="0.98" transform="translate(-5.02 206.16) rotate(-47.48)"/><rect class="cls-1" x="216.04" y="108.62" width="14.38" height="0.98" transform="translate(-8.06 199.9) rotate(-47.48)"/><rect class="cls-1" x="207.41" y="108.94" width="14.38" height="0.98" transform="translate(-11.09 193.64) rotate(-47.48)"/><rect class="cls-1" x="198.7" y="109.59" width="14.38" height="0.98" transform="translate(-14.39 187.43) rotate(-47.48)"/><rect class="cls-1" x="190.07" y="109.91" width="14.38" height="0.98" transform="translate(-17.43 181.17) rotate(-47.48)"/><rect class="cls-1" x="181.52" y="109.91" width="14.38" height="0.98" transform="translate(-20.2 174.87) rotate(-47.48)"/><rect class="cls-1" x="172.72" y="110.87" width="14.38" height="0.98" transform="translate(-23.76 168.7) rotate(-47.48)"/><rect class="cls-1" x="164.09" y="111.2" width="14.38" height="0.98" transform="translate(-26.8 162.45) rotate(-47.48)"/><rect class="cls-1" x="155.46" y="111.52" width="14.38" height="0.98" transform="translate(-29.83 156.19) rotate(-47.48)"/><rect class="cls-1" x="146.75" y="112.16" width="14.38" height="0.98" transform="translate(-33.13 149.98) rotate(-47.48)"/><rect class="cls-1" x="138.12" y="112.49" width="14.38" height="0.98" transform="translate(-36.17 143.72) rotate(-47.48)"/><rect class="cls-1" x="129.57" y="112.49" width="14.38" height="0.98" transform="translate(-38.94 137.42) rotate(-47.48)"/><rect class="cls-1" x="120.86" y="113.13" width="14.38" height="0.98" transform="translate(-42.24 131.21) rotate(-47.48)"/><rect class="cls-1" x="112.22" y="113.45" width="14.38" height="0.98" transform="translate(-45.27 124.95) rotate(-47.48)"/><rect class="cls-1" x="103.59" y="113.78" width="14.38" height="0.98" transform="translate(-48.31 118.69) rotate(-47.48)"/><rect class="cls-1" x="94.88" y="114.42" width="14.38" height="0.98" transform="translate(-51.61 112.48) rotate(-47.48)"/><rect class="cls-1" x="86.25" y="114.74" width="14.38" height="0.98" transform="translate(-54.64 106.22) rotate(-47.48)"/><rect class="cls-1" x="77.7" y="114.74" width="14.38" height="0.98" transform="translate(-57.42 99.92) rotate(-47.48)"/><rect class="cls-1" x="68.91" y="115.71" width="14.38" height="0.98" transform="translate(-60.98 93.75) rotate(-47.48)"/><rect class="cls-1" x="60.27" y="116.03" width="14.38" height="0.98" transform="translate(-64.02 87.5) rotate(-47.48)"/><rect class="cls-1" x="51.64" y="116.36" width="14.38" height="0.98" transform="translate(-67.05 81.24) rotate(-47.48)"/><rect class="cls-1" x="42.93" y="117" width="14.38" height="0.98" transform="translate(-70.35 75.03) rotate(-47.48)"/><rect class="cls-1" x="34.3" y="117.32" width="14.38" height="0.98" transform="translate(-73.39 68.77) rotate(-47.48)"/><rect class="cls-1" x="25.75" y="117.32" width="14.38" height="0.98" transform="translate(-76.16 62.47) rotate(-47.48)"/></g></g></svg>