<svg xmlns="http://www.w3.org/2000/svg" viewBox="0 0 390.1 229.02"><defs><style>.cls-1{fill:#fff;}</style></defs><g id="Layer_2" data-name="Layer 2"><g id="design"><path d="M56.18,128.49l-6.06,3.71s1.58-12.85,1.58-17-8-7.07-8.35-3.8c-.5,4.24-3,27.21-3.59,32.23h-.07l-.66-.14c-2.52-6.94-9.78-12-18.35-12-9.29,0-17,5.89-18.89,13.74H1.7L.23,153.72a15.79,15.79,0,0,0,2.82,12h0a15.77,15.77,0,0,0,8.49,5.87l51.34,14.24,7.85-52.34Z"/><path d="M381,175.58l-1.76-1.46a1.56,1.56,0,0,0-2.36.41l-1,1.79c-1.06,1.82-2.07,3.22-4.05,4l-2.46,1.24a6.53,6.53,0,0,1-2.92-.19L349.63,169,333,186.87c-.91-4.41-1.65-7.82-1.65-7.82l-282-16,4.2,52.07a10.5,10.5,0,0,0,10.77,9.65l241.37-6.7a1.08,1.08,0,0,1,1,.55c1,1.85,4.66,7.75,9.69,9.43,5.53,1.85,10,1,12-2a60.56,60.56,0,0,0,6-11c1.34-3.35,1.43-6.86,0-14-1-5,7.74-7.84,7.74-7.84l16.32,11.54a3.5,3.5,0,0,0,4.71-.64L377.76,187l3.71-9.87A1.57,1.57,0,0,0,381,175.58Z"/><path d="M364.54,102.69l15.63,1.3a4.16,4.16,0,0,1,3.63,3l6.13,20.8a4.13,4.13,0,0,1-.66,3.66l-2.42,3.22a4.13,4.13,0,0,1-3.31,1.66h-2.26a4.13,4.13,0,0,1-3.87-2.69h0a4.14,4.14,0,0,0-3.68-2.68l-7.23-.35a4.14,4.14,0,0,1-3.9-3.61l-2.51-19.62A4.14,4.14,0,0,1,364.54,102.69Z"/><ellipse cx="337.51" cy="28" rx="14.72" ry="17.35" transform="translate(246.45 354.2) rotate(-79.14)"/><path d="M308.73,43.05l10.14-12.76V24.4l-10.79-5.89-4,5.16a3.28,3.28,0,0,1-3.26,1.2h0a3.3,3.3,0,0,1-2.49-2.42L295.6,11.17a3.3,3.3,0,0,1,.25-2.23l2.95-5.89a3.25,3.25,0,0,1,2.49-1.77L311.07,0a3.25,3.25,0,0,1,2.3.57L333.6,14.91,348,21.13l7.85,13.41-5.48,7.52a12.32,12.32,0,0,1-9,5l-2.84.22L327.71,58.42Z"/><path d="M122.21,36.5l-4.92-7.16a3.82,3.82,0,0,1-.59-2.94l.9-4.33a3.79,3.79,0,0,1,2.2-2.71l8.59-3.79a3.74,3.74,0,0,1,1.54-.33h6.53a3.81,3.81,0,0,1,3,1.42L147.77,27,122.21,36.5"/><path class="cls-1" d="M370.24,118c-1-5.42-3.37-14.74-5.73-19.66-1.73-3.62-2.31-5.24-2.41-6.94a18.51,18.51,0,0,0-23.88-27.8c-5-5.52-10.8-14.11-20.65-21.5-34-25.52-65.74-33.95-106-32.72-32.06,1-44.28,3.41-65.76,12.43C134.67,26.47,116.37,35.85,102,50.7A18.51,18.51,0,0,0,75.41,76.38C66,87.65,59.07,107.68,56.84,121.65c-3.29,20.52-2.19,48.72,2.36,69.93a4.87,4.87,0,0,0,4.88,3.83c36.54-.8,70.17-1.7,105.94-2.53,34.63-.8,69.42-1,104-2.29,12.07-.43,24.61-.94,36.64-2,1.67,7.42,2.67,16.42,6.67,21.42s14.06,6.7,16.24.17c1.63-4.9-2.13-9.12-1.05-13s4.9-6.27,8-8.6C354.94,177.66,363,167,367.62,151,370.27,141.72,372.2,128.76,370.24,118Z"/><ellipse cx="255.67" cy="111.61" rx="60.23" ry="77.25" transform="translate(58.15 308.62) rotate(-68.51)"/><ellipse cx="84.03" cy="58.23" rx="7.13" ry="5.74" transform="translate(-16.56 76.48) rotate(-45)"/><path class="cls-1" d="M211.24,48l10.39,30.73a.33.33,0,0,0,.64,0l8.93-37.24Z"/><path class="cls-1" d="M178.83,86.78,206.3,97.86a.33.33,0,0,0,.36-.54l-26-26.62-1.82,16.08"/><path class="cls-1" d="M197.5,59.73l18.41,24.16a.33.33,0,0,0,.56-.33l-8.24-35.18-10.9,6.74Z"/><path class="cls-1" d="M186.58,72.83l24.73,16.31a.33.33,0,0,0,.46-.45l-18.9-31.26-6.29,15.4"/><path class="cls-1" d="M224.74,134.63,187,136.85l7.29,11.66,30.59-13.25A.33.33,0,0,0,224.74,134.63Z"/><path class="cls-1" d="M179.78,118.33l29.57-1.78a.33.33,0,0,0,.09-.64l-34.53-12.36,5.25,15.31"/><path class="cls-1" d="M173.79,100.91l29.12,5.41a.33.33,0,0,0,.25-.6L172.39,84.78l1.4,16.13"/><path class="cls-1" d="M182.67,135.51,211.05,127c5.59-1,5.55-1.52,5.19-1.56l-36.94-4.58,2.06,14.24Z"/><path class="cls-1" d="M210.59,159.78l23.55-18a.33.33,0,0,0-.28-.58L197.69,150l12.9,9.77"/><path class="cls-1" d="M286,150.37l-17,27.76,11.74.35,5.92-27.86A.33.33,0,0,0,286,150.37Z"/><path class="cls-1" d="M247.26,176.87l13.67-25a.33.33,0,0,0-.46-.46l-32,20.64,17.1,4.77"/><path class="cls-1" d="M226.77,169.76l22.53-19.24A.33.33,0,0,0,249,150L212.37,160.7l14.4,9.06"/><path class="cls-1" d="M264.85,181l9.65-28a.33.33,0,0,0-.56-.33L248.69,180l16.16,1"/><path class="cls-1" d="M304,117.75l22.17,31.72L332,137l-27.58-19.7A.33.33,0,0,0,304,117.75Z"/><path class="cls-1" d="M312.29,165.54,299.16,139a.33.33,0,0,0-.62.16l3,37.18,10.77-10.78"/><path class="cls-1" d="M298.36,177.12l-4.75-29.24a.33.33,0,0,0-.65,0l-9.3,30.48,14.7-1.21"/><path class="cls-1" d="M323.66,151.74l-19.13-22.61a.33.33,0,0,0-.57.31l10.58,35.68,9.12-13.38"/><path class="cls-1" d="M274.87,80.67l38.7-.31-5.7-10.27L274.77,80A.33.33,0,0,0,274.87,80.67Z"/><path class="cls-1" d="M327.28,97.79l-29.61-.88a.33.33,0,0,0-.15.63l33.62,16-3.86-15.71"/><path class="cls-1" d="M333,117.63l-28.32-10a.33.33,0,0,0-.33.56l27.3,25.3,1-16.16"/><path class="cls-1" d="M318,80.83l-28.95,6.28a.33.33,0,0,0,0,.65l36.48,7.39L318,80.83"/><path class="cls-1" d="M228.48,75.66l24-29-19-2.95-5.56,31.6A.33.33,0,0,0,228.48,75.66Z"/><path class="cls-1" d="M273,50.68,252.52,72.14a.33.33,0,0,0,.37.53l34.33-14.36L273,50.68"/><path class="cls-1" d="M291.41,58.4,265.58,72.92a.33.33,0,0,0,.2.62l37.69-5.29L291.41,58.4"/><path class="cls-1" d="M255.44,46,240.78,71.74a.33.33,0,0,0,.48.43L271.13,50l-15.69-4"/><path d="M283.78,58.72c-1.2-.57-2.44-1.13-3.67-1.65-1.75-.75-3.55-1.45-5.35-2.09a98.79,98.79,0,0,0-11.36-3.34c-1.58-.35-3.17-.68-4.75-1l.17-1c1.59.28,3.21.6,4.8,1a100.8,100.8,0,0,1,11.48,3.36c1.81.65,3.62,1.36,5.39,2.12,1.25.53,2.5,1.09,3.71,1.67Z"/><path d="M216.91,53.64l-.33-.93a77.78,77.78,0,0,1,23.31-4.33c2.68-.1,5.43-.07,8.16.09l-.06,1c-2.69-.16-5.41-.19-8.07-.09A76.41,76.41,0,0,0,216.91,53.64Z"/><path d="M196,141.6a69.59,69.59,0,0,1-14.43-27.67,50.54,50.54,0,0,1,1-28.58,48,48,0,0,1,8.38-15.12l.76.62a47.26,47.26,0,0,0-8.21,14.81,49.55,49.55,0,0,0-.94,28A68.57,68.57,0,0,0,196.73,141Z"/><path d="M236.24,169.18a96.24,96.24,0,0,1-29.57-16.88l.63-.75a95.12,95.12,0,0,0,29.27,16.7Z"/><path d="M328.82,137.88l-.93-.32a47.73,47.73,0,0,0,2-8.69l1,.13A48.15,48.15,0,0,1,328.82,137.88Z"/><path d="M330.37,120.82a55.39,55.39,0,0,0-3.25-17l.92-.33a56.45,56.45,0,0,1,3.31,17.3Z"/><path d="M310.41,77.61a88,88,0,0,0-9.07-8.11,93.25,93.25,0,0,0-10.59-7.12l.49-.85a95.17,95.17,0,0,1,10.7,7.19,89,89,0,0,1,9.18,8.2Z"/><path class="cls-1" d="M277.23,138.9l-.13-1c7.41-1,14.22-6.43,16.18-13,2.22-7.4.57-15.75-4.63-23.53S275.05,87.18,265.2,83.5c-17.5-6.54-35.51-3-42.82,8.49l-.83-.53c7.56-11.85,26.06-15.58,44-8.88,10,3.75,18.54,10.25,23.93,18.3s7,16.67,4.75,24.35C292.12,132.25,285.13,137.87,277.23,138.9Z"/><path class="cls-1" d="M228.35,127.75a34.34,34.34,0,0,1-10-18.68l1-.17A33.25,33.25,0,0,0,229,127Z"/><path class="cls-1" d="M82.6,59.68h0Z"/><path class="cls-1" d="M83.05,59.75h0l.07,0h-.06Z"/><path class="cls-1" d="M83.21,59.84h0l0,0h0Z"/><path class="cls-1" d="M86.18,55.53c-1,.25-1.28,1-2,.76-.54-.18-1.42-2-2-1.91-1.25.17.06,2.08,0,2.82-.09,1-1.24,1.48-1.81,2.22-.73,1,.54,1,1.69.59s1.56.08,2.26.85c1.18,1.3,1.59.36,1.18-.74-.76-2,1.13-2.34,1.72-3.9C87.24,55.93,87.2,55.27,86.18,55.53Z"/><ellipse class="cls-1" cx="340.12" cy="27.39" rx="6.73" ry="8.36" transform="translate(133.85 299.2) rotate(-57.41)"/><path class="cls-1" d="M338.09,26.12h0a.39.39,0,0,1,0,.06v-.05Z"/><path class="cls-1" d="M338.13,26.65h0a.33.33,0,0,1,0,.08v-.07Z"/><path class="cls-1" d="M338.07,26.86h0l0,0v0Z"/><path d="M343.75,29.17c-.55-1.1-1.49-1.2-1.39-2.14.07-.67,1.94-2.13,1.68-2.82-.52-1.39-2.37.59-3.24.7-1.15.15-2-1-3-1.51-1.27-.6-1.28.86-.57,2.08a2.16,2.16,0,0,1-.08,2.8c-1.19,1.68,0,1.92,1.15,1.17,2.14-1.39,3,.7,4.89,1C343.55,30.49,344.3,30.27,343.75,29.17Z"/><path class="cls-1" d="M336.62,39.44c-6-1.06-10.72-6.9-11.36-11.7a10.67,10.67,0,0,1,2.08-8.24l.73.65-.36-.33.36.33a9.92,9.92,0,0,0-1.84,7.46c.59,4.45,5,9.88,10.56,10.87Z"/><rect class="cls-1" x="380.71" y="123.35" width="0.98" height="9.51" transform="translate(227.16 499.59) rotate(-86.05)"/><rect class="cls-1" x="353.94" y="191.25" width="16.24" height="0.98" transform="translate(-0.47 382.58) rotate(-55.67)"/><ellipse cx="322.88" cy="203.53" rx="5.74" ry="7.13" transform="translate(-32.45 342.87) rotate(-53.64)"/><path class="cls-1" d="M325.13,203.92v0c-.23-.54-.1-1,.51-1.88.49-.7.36-1.79-.85-1.31-1,.41-1.56,1.55-2.9.25-.47-.47-1.37-1.21-1.69-.47s.75,1.63,1,2.34c.3,1,0,1.33-.6,2-.84,1,.6,1.46,1.3.87a2.44,2.44,0,0,1,1.78-.45c.6.12,1.37,1.2,2,.65S325.38,204.49,325.13,203.92Z"/><path class="cls-1" d="M321.54,200.84s0,0,0,0Z"/><polygon class="cls-1" points="321.54 200.84 321.54 200.84 321.54 200.84 321.54 200.84 321.54 200.84"/><ellipse cx="354.26" cy="76.21" rx="5.74" ry="7.13" transform="translate(82.85 316.31) rotate(-53.64)"/><path class="cls-1" d="M356.5,76.61v0c-.22-.54-.09-1,.51-1.88.49-.7.36-1.79-.85-1.3-1,.4-1.56,1.54-2.89.24-.48-.46-1.38-1.21-1.69-.47s.75,1.63,1,2.34c.29,1,0,1.33-.61,2-.84,1,.61,1.45,1.31.87a2.44,2.44,0,0,1,1.78-.46c.6.12,1.36,1.2,2,.65S356.76,77.17,356.5,76.61Z"/><path class="cls-1" d="M352.91,73.52s0,0,0,0Z"/><polygon class="cls-1" points="352.91 73.52 352.91 73.52 352.91 73.52 352.91 73.52 352.91 73.52"/><path class="cls-1" d="M16.54,158a10.73,10.73,0,0,1-7.31-9.87c0-5.91,5.35-10.71,11.94-10.71s11.94,4.8,11.94,10.71a10.31,10.31,0,0,1-4.35,8.27l-.59-.79a9.32,9.32,0,0,0,4-7.48c0-5.36-4.92-9.73-11-9.73s-11,4.37-11,9.73a9.76,9.76,0,0,0,6.67,9Z"/><path class="cls-1" d="M24,148.36l0,0c-.35-.71-.22-1.35.53-2.57.6-1,.33-2.43-1.25-1.68-1.33.63-2,2.2-3.87.57-.67-.58-1.94-1.51-2.3-.49s1.14,2.13,1.49,3.06c.48,1.32.06,1.78-.65,2.71-1.05,1.37.94,1.9,1.82,1.06a3.26,3.26,0,0,1,2.35-.76c.81.11,1.93,1.49,2.77.7S24.36,149.1,24,148.36Z"/><path class="cls-1" d="M18.91,144.52c-.06,0,0,0,0,0Z"/><polygon class="cls-1" points="18.91 144.52 18.91 144.52 18.91 144.52 18.9 144.52 18.91 144.52"/></g></g></svg>