<?xml version="1.0" encoding="UTF-8"?>
<svg width="1080px" height="1539px" viewBox="0 0 1080 1539" version="1.1" xmlns="http://www.w3.org/2000/svg" xmlns:xlink="http://www.w3.org/1999/xlink">
    <!-- Generator: Sketch 59.1 (86144) - https://sketch.com -->
    <title>Group 90</title>
    <desc>Created with Sketch.</desc>
    <defs>
        <polygon id="path-1" points="0.250541436 0.141896976 1590.74064 0.141896976 1590.74064 1097.34586 0.250541436 1097.34586"></polygon>
        <polygon id="path-3" points="0.250541436 853.810867 1590.74064 853.810867 1590.74064 1097.34586 0.250541436 1097.34586"></polygon>
        <polygon id="path-5" points="0.250541436 706.656115 1590.74064 706.656115 1590.74064 1097.34586 0.250541436 1097.34586"></polygon>
        <polygon id="path-7" points="0.250541436 598.593673 1590.74064 598.593673 1590.74064 1060.33497 0.250541436 1060.33497"></polygon>
        <polygon id="path-9" points="0.250541436 501.40662 1590.74064 501.40662 1590.74064 914.517324 0.250541436 914.517324"></polygon>
        <polygon id="path-11" points="0.250541436 428.255183 1590.74064 428.255183 1590.74064 843.078108 0.250541436 843.078108"></polygon>
        <polygon id="path-13" points="0.250541436 291.274376 1590.74064 291.274376 1590.74064 719.259127 0.250541436 719.259127"></polygon>
        <polygon id="path-15" points="0.250541436 177.170324 1590.74064 177.170324 1590.74064 638.911618 0.250541436 638.911618"></polygon>
        <polygon id="path-17" points="0.250541436 100.603279 1590.74064 100.603279 1590.74064 533.373982 0.250541436 533.373982"></polygon>
        <polygon id="path-19" points="0.250541436 0.141896976 1590.74064 0.141896976 1590.74064 421.564073 0.250541436 421.564073"></polygon>
        <polygon id="path-21" points="0.250541436 0.141896976 1590.74064 0.141896976 1590.74064 319.639048 0.250541436 319.639048"></polygon>
        <polygon id="path-23" points="1495.51776 0.141896976 1590.74064 0.141896976 1590.74064 1097.34586 1495.51776 1097.34586"></polygon>
        <polygon id="path-25" points="1417.5744 0.141896976 1590.74064 0.141896976 1590.74064 1097.34586 1417.5744 1097.34586"></polygon>
        <polygon id="path-27" points="1330.41914 0.141896976 1519.53398 0.141896976 1519.53398 1097.34586 1330.41914 1097.34586"></polygon>
        <polygon id="path-29" points="1230.18742 0.141896976 1436.62312 0.141896976 1436.62312 1097.34586 1230.18742 1097.34586"></polygon>
        <polygon id="path-31" points="1137.4997 0.141896976 1349.83357 0.141896976 1349.83357 1097.34586 1137.4997 1097.34586"></polygon>
        <polygon id="path-33" points="1063.45364 0.141896976 1262.08482 0.141896976 1262.08482 1097.34586 1063.45364 1097.34586"></polygon>
        <polygon id="path-35" points="964.845159 0.141896976 1171.28086 0.141896976 1171.28086 1097.34586 964.845159 1097.34586"></polygon>
        <polygon id="path-37" points="872.15405 0.141896976 1083.50489 0.141896976 1083.50489 1097.34586 872.15405 1097.34586"></polygon>
        <polygon id="path-39" points="784.351804 0.141896976 996.68567 0.141896976 996.68567 1097.34586 784.351804 1097.34586"></polygon>
        <polygon id="path-41" points="699.51482 0.141896976 905.950523 0.141896976 905.950523 1097.34586 699.51482 1097.34586"></polygon>
        <polygon id="path-43" points="606.824493 0.141896976 818.174462 0.141896976 818.174462 1097.34586 606.824493 1097.34586"></polygon>
        <polygon id="path-45" points="519.029119 0.141896976 728.413034 0.141896976 728.413034 1097.34586 519.029119 1097.34586"></polygon>
        <polygon id="path-47" points="450.550005 0.141896976 640.698304 0.141896976 640.698304 1097.34586 450.550005 1097.34586"></polygon>
        <polygon id="path-49" points="341.495893 0.141896976 554.812787 0.141896976 554.812787 1097.34586 341.495893 1097.34586"></polygon>
        <polygon id="path-51" points="254.649532 0.141896976 463.05129 0.141896976 463.05129 1097.34586 254.649532 1097.34586"></polygon>
        <polygon id="path-53" points="181.500576 0.141896976 375.283841 0.141896976 375.283841 1097.34586 181.500576 1097.34586"></polygon>
        <polygon id="path-55" points="76.1493725 0.141896976 285.534158 0.141896976 285.534158 1097.34586 76.1493725 1097.34586"></polygon>
        <polygon id="path-57" points="0.250541436 0.141896976 199.706491 0.141896976 199.706491 1097.34586 0.250541436 1097.34586"></polygon>
    </defs>
    <g id="Page-1" stroke="none" stroke-width="1" fill="none" fill-rule="evenodd">
        <g id="lenovo_soundcard_ux_3-copy-3" transform="translate(0.000000, -381.000000)">
            <g id="Group-90" transform="translate(541.500000, 1177.000000) rotate(90.000000) translate(-541.500000, -1177.000000) translate(-254.000000, 628.000000)">
                <g id="Group-88">
                    <mask id="mask-2" fill="white">
                        <use xlink:href="#path-1"></use>
                    </mask>
                    <g id="Clip-2"></g>
                    <path d="M-103.46039,-86.9093372 C307.295334,-46.7919681 524.509539,-78.350709 704.587936,-189.384559 C740.210056,-14.3050289 743.238302,-14.3050289 716.384262,-186.973378 C764.429062,-7.80764105 781.080498,-2.23845147 785.196163,-164.067151 C823.462887,13.540919 846.168205,22.8229016 876.617689,-126.693835 C901.418681,46.9560565 930.934724,63.6636252 996.547002,-67.6198836 C962.722169,79.4429957 964.236726,80.371194 1000.47998,-64.0031111 C999.050677,98.006961 1031.59497,116.570926 1130.2387,5.92115809 C1066.40979,136.06309 1067.16663,135.134891 1135.15383,7.12674894 C1099.71092,153.698857 1130.74152,166.693632 1257.0492,64.9951096 C1178.42356,187.113994 1194.31641,191.754986 1319.96381,85.490154 C1260.1627,209.390753 1305.57246,212.175347 1506.7381,95.1348808 C1403.20533,195.467779 1447.10228,175.047417 1681.7178,19.1826574 C1522.02983,121.211918 1550.79076,95.2223662 1795.74895,-86.9093372 C1593.17315,192.683184 1594.68771,322.630941 1810.49349,419.438819 C1587.87525,459.076085 1587.87525,463.717077 1808.52744,439.933863 C1587.1184,477.640051 1586.36156,486.922033 1807.54441,473.690407 C1577.27943,641.002945 1556.0878,784.873676 1773.13846,1039.11251 C1560.62887,977.938914 1565.16993,1026.20522 1795.74895,1222.36232 C1556.84552,1082.82532 1536.40986,1093.9637 1715.13986,1263.35241 C1305.57246,1204.41929 1072.46454,1208.13208 863.838336,1281.43627 C855.250332,1115.31226 851.466113,1114.38406 847.126874,1275.40832 C812.867943,1096.74829 778.809096,1081.89712 715.402105,1211.51201 C727.34371,1054.05117 709.179456,1045.69739 645.606306,1174.13869 C663.011976,1017.85144 634.251908,1003.92847 532.558183,1113.85915 C541.917819,956.590354 477.585216,930.600803 279.921073,1034.29015 C369.356536,925.031613 329.243808,930.600803 122.635857,1057.19638 C286.860548,945.451975 285.346861,946.380173 115.755537,1060.81315 C219.502309,970.513328 163.495859,1015.99504 -103.46039,1222.36232 C110.515915,1032.70261 107.488539,993.718285 -117.22277,1070.45788 C104.461164,951.021165 104.461164,946.380173 -117.22277,1054.7852 C91.5948171,744.032952 113.543291,548.183119 -84.7828738,286.823826 C133.978077,255.800666 139.275984,156.483452 -103.46039,-86.9093372 C115.056979,63.6636252 115.056979,63.6636252 -103.46039,-86.9093372 Z" id="Stroke-1" stroke="#FFFFFF" stroke-width="2" mask="url(#mask-2)"></path>
                    <mask id="mask-4" fill="white">
                        <use xlink:href="#path-3"></use>
                    </mask>
                    <g id="Clip-5"></g>
                    <path d="M-103.448037,1041.49212 C121.099725,1034.81442 127.154476,1028.31704 -78.8723578,1017.3803 C143.805042,1015.32226 151.373482,1006.96848 -43.48338,986.034937 C162.72614,997.686492 164.239828,996.758294 -37.585217,982.418165 C172.565111,990.260906 178.619863,984.691717 -12.0265109,961.92312 C186.946016,979.122527 187.70199,977.266131 -7.11137507,957.100757 C194.513585,971.696941 199.811492,968.912346 13.5321953,941.428076 C211.921865,958.702165 218.73259,954.989372 40.0739286,923.344213 C389.022472,839.892788 589.586111,822.257021 726.226886,922.138622 C755.33493,950.348381 756.091774,950.348381 731.142022,924.549804 C760.633707,954.061174 763.660213,956.845769 742.938348,935.400121 C768.201276,960.558562 768.95812,960.558562 747.853484,937.811303 C790.14975,978.194329 806.800316,993.973699 816.665385,1005.32439 C853.724639,1050.59379 879.457332,1085.86533 936.594699,1139.14497 C918.056372,1118.35227 920.326904,1119.28046 945.441943,1145.17293 C1009.63449,1196.32092 1108.0242,1224.16687 1317.02621,1274.17115 C1343.40266,1214.88489 1473.58068,1147.12641 1795.76044,1041.49212" id="Stroke-4" stroke="#FFFFFF" stroke-width="2" mask="url(#mask-4)"></path>
                    <mask id="mask-6" fill="white">
                        <use xlink:href="#path-5"></use>
                    </mask>
                    <g id="Clip-8"></g>
                    <path d="M-103.448037,936.923967 C208.89362,842.093044 323.177051,776.190968 326.135702,709.067297 C448.813142,761.338729 451.083674,759.483399 336.948131,706.656115 C539.634412,750.200349 625.157775,766.908985 661.347094,772.963612 C710.681138,814.247097 717.492734,818.888088 687.888827,788.636293 C751.55071,840.236648 776.526559,859.728811 787.17457,868.205289 C828.74879,912.635046 850.697263,944.193786 886.460314,985.147601 C880.214176,976.681793 883.241552,979.466387 898.256639,995.997918 C887.026642,983.178113 887.782616,985.035577 901.205721,1000.82028 C899.135274,996.173956 908.217401,1004.52774 940.527677,1036.98801 C921.083748,1015.66612 923.35428,1016.59325 949.374052,1043.01596 C928.652187,1021.23424 931.679563,1024.0199 961.170378,1053.86628 C946.059597,1034.23008 956.655412,1042.58387 1004.42357,1084.00605 C971.792291,1051.86478 974.819666,1053.72225 1018.18595,1091.2396 C979.36073,1056.50578 980.874418,1057.43504 1022.11806,1094.85637 C1126.18845,1142.82928 1295.72149,1129.83344 1614.88344,1076.77251 C1441.03552,1043.511 1443.30605,1041.65567 1625.69674,1070.74455 C1447.84712,1038.87108 1449.3608,1038.87108 1631.5949,1068.33337 C1459.19977,1032.37262 1466.76821,1026.8045 1663.05177,1047.83832 C1512.17885,997.101087 1544.72314,968.328008 1795.76044,936.923967" id="Stroke-7" stroke="#FFFFFF" stroke-width="2" mask="url(#mask-6)"></path>
                    <mask id="mask-8" fill="white">
                        <use xlink:href="#path-7"></use>
                    </mask>
                    <g id="Clip-11"></g>
                    <path d="M-103.448037,831.272707 C218.73259,726.288148 348.152901,658.529675 375.28706,598.593673 C510.874344,651.104089 537.363881,652.960486 480.470096,604.621627 C589.586111,660.386072 613.048273,666.88346 575.823731,628.733444 C652.404157,679.878235 665.270503,686.375623 628.907198,650.434079 C707.653763,705.867787 733.386456,721.647157 735.074131,716.741576 C773.500054,754.134096 785.609556,763.416079 783.242462,758.937256 C824.207726,801.472208 844.642512,830.246354 875.647015,867.440432 C946.059597,947.199335 1044.45018,997.322041 1238.38404,1060.33497 C1292.69411,1022.38339 1431.95339,966.691499 1760.37146,863.823659 C1551.53473,855.307707 1553.04842,854.379509 1766.26962,860.206887 C1562.88739,846.025724 1569.69899,838.600138 1795.76044,831.272707" id="Stroke-10" stroke="#FFFFFF" stroke-width="2" mask="url(#mask-8)"></path>
                    <mask id="mask-10" fill="white">
                        <use xlink:href="#path-9"></use>
                    </mask>
                    <g id="Clip-14"></g>
                    <path d="M-103.448037,725.646518 C150.616638,690.284298 188.458834,658.725557 44.9890644,603.881842 C230.842963,630.879609 232.355781,630.879609 50.8872274,601.470661 C273.982197,602.105463 314.094924,585.397894 212.103682,523.107256 C380.697189,562.192938 401.888819,557.551946 299.593099,501.40662 C494.223777,539.916179 559.312354,544.557171 561.078324,518.284892 C674.35263,581.685101 715.222202,603.033661 731.142022,608.704206 C775.769715,649.443574 790.14975,663.366548 795.038788,665.366976 C810.584536,683.78691 813.611911,687.499703 809.785065,681.039657 C818.909819,692.140695 819.666663,693.997091 812.733277,685.86202 C822.694038,696.781686 824.96457,698.638082 820.597494,693.095565 C840.101449,717.202048 852.210951,733.909616 871.714906,758.197471 C867.34783,752.473582 869.618361,754.329978 879.579123,765.431016 C872.645737,757.114573 873.402581,758.97097 882.528205,770.253379 C909.731089,797.027098 946.816441,828.585839 1031.94833,888.401283 C989.956545,851.790796 991.470233,852.718994 1035.88044,892.018055 C1120.89054,924.19026 1267.71826,918.621071 1561.79997,895.634828 C1398.65226,855.503589 1399.40911,854.575391 1566.71511,892.018055 C1465.25453,823.01665 1524.28835,778.463133 1795.76044,725.646518" id="Stroke-13" stroke="#FFFFFF" stroke-width="2" mask="url(#mask-10)"></path>
                    <mask id="mask-12" fill="white">
                        <use xlink:href="#path-11"></use>
                    </mask>
                    <g id="Clip-17"></g>
                    <path d="M-103.448037,620.043801 C152.130326,584.642106 190.729365,550.29877 50.8872274,495.867944 C236.140001,522.452823 239.167376,520.596426 60.717499,488.634399 C251.276879,513.17084 260.359006,507.60165 98.0725311,466.933764 C283.821168,494.606875 298.201202,489.037685 152.139025,440.410765 C313.33808,480.683901 314.851768,481.612099 158.037188,439.205174 C459.408957,417.566419 619.859868,423.135608 726.226886,500.690307 C755.33493,528.95021 756.091774,528.95021 731.142022,503.101489 C762.146525,533.591202 765.930744,536.375797 747.853484,516.362988 C790.14975,556.796158 806.800316,572.575529 816.665385,583.876076 C853.724639,629.195623 879.457332,664.467157 936.594699,717.69666 C918.056372,696.954096 920.326904,697.882294 945.441943,723.724614 C981.632132,750.789595 1042.93562,776.779147 1191.19873,843.078108 C1113.3221,791.630319 1114.83579,791.630319 1197.0969,843.078108 C1285.12567,824.117258 1450.87449,748.933199 1795.76044,620.043801" id="Stroke-16" stroke="#FFFFFF" stroke-width="2" mask="url(#mask-12)"></path>
                    <mask id="mask-14" fill="white">
                        <use xlink:href="#path-13"></use>
                    </mask>
                    <g id="Clip-20"></g>
                    <path d="M-103.448037,514.308683 C120.342881,509.762645 124.883944,504.193456 -83.7874936,495.019229 C141.534511,490.270482 150.616638,480.988499 -43.48338,458.851504 C162.72614,470.778318 164.239828,469.85012 -37.585217,455.234731 C289.875919,364.963716 426.864668,315.769208 490.301238,291.274376 C573.692389,342.686958 575.206077,342.686958 496.198531,291.274376 C621.373556,351.968941 662.999971,365.891915 661.347094,351.553919 C710.681138,392.809664 717.492734,397.450655 687.888827,367.2266 C734.1433,408.589035 743.982271,413.230026 726.226886,394.955189 C755.33493,423.440207 756.091774,423.440207 731.142022,397.366371 C760.633707,427.153 763.660213,429.937595 742.938348,408.216688 C768.201276,433.650388 768.95812,433.650388 747.853484,410.62787 C782.581311,444.788767 792.421152,454.07075 791.106679,450.412368 C826.478258,488.414085 844.642512,514.403637 871.714906,546.859636 C882.484708,558.957153 899.135274,575.664722 940.527677,615.578314 C920.326904,593.300489 921.083748,593.300489 945.441943,617.989496 C940.76169,610.008058 958.925944,623.002833 1018.18595,669.829902 C979.36073,635.069411 980.874418,635.997609 1022.11806,673.446675 C1090.61679,700.043289 1211.71181,709.325272 1474.31056,719.259127 C1375.94694,657.346169 1417.57336,637.854006 1642.4082,639.690131 C1484.17562,594.228687 1507.63779,579.377515 1735.79578,570.971453 C1546.99367,543.177783 1562.88739,531.111205 1795.76044,514.308683" id="Stroke-19" stroke="#FFFFFF" stroke-width="2" mask="url(#mask-14)"></path>
                    <mask id="mask-16" fill="white">
                        <use xlink:href="#path-15"></use>
                    </mask>
                    <g id="Clip-23"></g>
                    <path d="M-103.448037,409.849357 C218.73259,304.864799 348.152901,237.106326 375.28706,177.170324 C510.874344,229.68074 537.363881,231.537136 480.470096,183.198278 C589.586111,238.962722 613.048273,245.46011 575.823731,207.310095 C652.404157,258.454886 665.270503,264.952274 628.907198,229.01073 C707.653763,284.444437 733.386456,300.223808 735.074131,295.318227 C773.500054,332.710747 785.609556,341.99273 783.242462,337.513906 C827.235102,382.833453 849.184446,416.248591 886.460314,458.072991 C880.214176,449.663728 883.241552,452.448323 898.256639,468.923309 C887.026642,456.161116 887.782616,458.017513 901.205721,473.745672 C929.409031,499.786434 972.549135,529.488779 1073.23547,594.304757 C1062.61356,570.329502 1104.23998,581.467882 1238.38404,638.911618 C1292.69411,600.960045 1431.95339,545.268149 1760.37146,442.40031 C1553.04842,432.027961 1555.31982,431.099763 1771.18476,433.961174 C1565.15792,421.81778 1571.21268,416.248591 1795.76044,409.849357" id="Stroke-22" stroke="#FFFFFF" stroke-width="2" mask="url(#mask-16)"></path>
                    <mask id="mask-18" fill="white">
                        <use xlink:href="#path-17"></use>
                    </mask>
                    <g id="Clip-26"></g>
                    <path d="M-103.448037,304.311721 C121.099725,297.546543 127.154476,291.977353 -78.8723578,280.199904 C142.291355,278.054379 149.10382,271.556991 -48.3985158,252.471315 C301.228578,138.82464 471.51846,88.7019334 575.823731,102.978049 C640.294654,149.963019 643.322029,149.963019 585.654003,105.389231 C665.270503,159.245001 684.949315,166.670588 661.347094,140.351366 C704.626387,178.737165 706.140075,179.665363 665.279202,143.968138 C743.225427,200.085725 775.769715,226.075276 795.038788,244.032179 C810.584536,262.275009 813.611911,265.987802 809.785065,259.70486 C818.909819,270.628793 819.666663,272.485189 812.733277,264.527223 C822.694038,275.269784 824.207726,277.126181 820.597494,271.760768 C845.399356,302.187534 861.293078,326.320689 894.324531,359.7689 C885.512084,348.597447 886.268928,351.382042 901.205721,368.208036 C916.542685,380.156188 943.789936,403.361145 1013.27082,457.421759 C984.658637,427.494299 992.98392,433.063489 1049.64282,477.916803 C1076.23762,474.832411 1154.94852,488.755385 1349.46611,533.373982 C1236.68766,480.4016 1238.95819,480.4016 1360.2794,533.373982 C1366.10884,465.550428 1481.90509,400.57655 1795.76044,304.311721" id="Stroke-25" stroke="#FFFFFF" stroke-width="2" mask="url(#mask-18)"></path>
                    <mask id="mask-20" fill="white">
                        <use xlink:href="#path-19"></use>
                    </mask>
                    <g id="Clip-29"></g>
                    <path d="M-103.448037,198.529766 C150.616638,163.309443 188.458834,131.750702 44.9890644,76.7650904 C230.842963,103.904754 232.355781,103.904754 50.8872274,74.3539087 C270.954821,78.8434009 308.797017,60.2794357 201.290383,0.812866962 C352.693964,45.4282635 354.964496,43.571867 212.103682,-4.00949643 C419.296229,24.0797034 478.330055,14.7977208 449.014097,-30.5324951 C543.418632,22.2233069 545.689164,22.2233069 459.826526,-30.5324951 C550.987071,22.2233069 554.014447,24.0797034 469.656798,-28.1213134 C571.422727,25.0079017 585.045048,28.7206947 526.672373,-17.2709958 C619.859868,36.1462808 638.024122,42.6436687 600.39941,5.63523035 C692.516884,65.8486253 725.061173,82.556194 731.142022,81.5874537 C762.146525,112.258538 765.930744,115.043133 747.853484,94.8489531 C783.338155,129.894305 794.690813,140.104486 795.038788,138.250224 C807.55716,153.099262 808.314004,154.955659 797.987869,143.072587 C830.263348,176.304219 846.913044,200.437373 871.714906,231.080719 C868.105544,225.498727 869.618361,227.355123 879.579123,238.314264 C872.645737,230.139718 873.402581,231.996114 882.528205,243.136627 C942.275378,307.180174 1021.74399,351.73369 1191.19873,421.564073 C1113.3221,370.297656 1114.83579,370.297656 1197.0969,421.564073 C1285.12567,402.784595 1450.87449,327.600535 1795.76044,198.529766" id="Stroke-28" stroke="#FFFFFF" stroke-width="2" mask="url(#mask-20)"></path>
                    <mask id="mask-22" fill="white">
                        <use xlink:href="#path-21"></use>
                    </mask>
                    <g id="Clip-32"></g>
                    <path d="M-103.448037,92.9879689 C121.099725,86.379624 127.154476,79.8822362 -78.8723578,68.8761519 C143.805042,66.8874605 151.373482,58.534743 -43.48338,37.5307899 C162.72614,49.2516935 164.239828,48.3234952 -37.585217,33.9140174 C183.91777,30.6877282 202.082024,18.6211508 34.1757657,-21.5431616 C222.51681,3.7699786 224.030498,3.7699786 40.0739286,-23.9543433 C389.022472,-109.47021 589.586111,-126.177778 726.226886,-26.365525 C755.33493,1.91358207 756.091774,1.91358207 731.142022,-23.9543433 C760.633707,5.62637513 763.660213,8.41096992 742.938348,-13.1040257 C768.201276,12.1248299 768.95812,12.1248299 747.853484,-10.692844 C790.14975,29.75953 806.800316,45.5389004 816.665385,56.8202435 C854.481483,103.087193 880.97102,139.286925 940.527677,194.2576 C920.326904,171.773864 921.083748,171.773864 945.441943,196.668782 C1024.77137,259.952699 1140.56848,285.942251 1381.906,319.639048 C1269.9888,265.521889 1280.58461,263.665492 1426.14222,311.199912 C1400.92279,234.891346 1495.52828,176.414856 1795.76044,92.9879689" id="Stroke-31" stroke="#FFFFFF" stroke-width="2" mask="url(#mask-22)"></path>
                    <mask id="mask-24" fill="white">
                        <use xlink:href="#path-23"></use>
                    </mask>
                    <g id="Clip-35"></g>
                    <path d="M1597.75345,-86.9348359 C1619.75673,96.1762766 1638.67783,131.447811 1668.53054,51.7081115 C1655.3284,180.642319 1659.86859,189.924301 1681.31076,91.4926095 C1663.65368,208.488266 1665.92334,214.057456 1688.19195,118.015608 C1668.19474,225.195835 1668.19474,227.98043 1691.14103,131.277107 C1670.46527,233.54962 1670.46527,235.406016 1692.12319,138.510653 C1671.22212,239.118809 1671.97809,240.047007 1694.09011,144.538607 C1677.27687,273.462145 1680.30424,303.164489 1704.90341,263.892101 C1679.54653,346.789808 1679.54653,359.784583 1701.95346,315.732507 C1675.76318,388.558729 1674.24949,401.553505 1693.10622,371.189686 C1657.59893,479.522159 1630.35255,533.357659 1586.93928,579.756903 C1587.96929,578.839373 1586.4556,581.623968 1581.04199,589.40163 C1584.1842,585.336761 1582.67138,586.26496 1577.10988,593.018402 C1579.644,590.905951 1577.3726,594.618744 1568.26264,607.485492 C1574.3461,599.259735 1572.83241,600.187933 1564.33053,611.102265 C1568.29134,607.61352 1565.2631,613.182709 1550.56815,636.419673 C1519.85333,693.935958 1509.25665,777.473802 1495.51776,949.873293 C1528.93546,940.836696 1557.69553,1011.37976 1597.75345,1222.33682" id="Stroke-34" stroke="#FFFFFF" stroke-width="2" mask="url(#mask-24)"></path>
                    <mask id="mask-26" fill="white">
                        <use xlink:href="#path-25"></use>
                    </mask>
                    <g id="Clip-38"></g>
                    <path d="M1509.98165,-86.9348359 C1554.50669,130.519612 1584.78045,211.272861 1615.16469,218.079648 C1593.86258,346.789808 1590.07836,394.127919 1597.4702,401.329457 C1572.67095,452.60441 1568.12988,465.599185 1579.77571,451.964273 C1559.8046,488.804142 1555.26354,497.157926 1563.06512,489.337589 C1543.91088,520.362883 1536.34244,531.501262 1533.57344,537.561223 C1527.26031,545.424236 1525.74663,546.352434 1529.6422,541.177996 C1523.47609,550.065227 1521.96241,552.849822 1523.74316,550.822722 C1512.88028,563.060003 1506.06868,571.413787 1495.23625,584.579266 C1487.14759,595.546942 1478.06546,610.398114 1455.91516,646.064399 C1456.11698,650.31064 1448.54855,671.6592 1421.50921,734.072531 C1405.40844,825.740111 1439.46642,970.53904 1509.98165,1222.33682" id="Stroke-37" stroke="#FFFFFF" stroke-width="2" mask="url(#mask-26)"></path>
                    <mask id="mask-28" fill="white">
                        <use xlink:href="#path-27"></use>
                    </mask>
                    <g id="Clip-41"></g>
                    <path d="M1421.23126,-86.9348359 C1458.22179,117.524837 1483.95449,180.642319 1519.53398,157.800106 C1509.68718,328.225842 1503.63243,401.553505 1495.94133,441.113955 C1477.89974,471.168375 1477.14289,473.024771 1492.99225,445.936319 C1468.05989,497.157926 1457.46408,517.578288 1451.70511,527.916496 C1421.89329,569.557391 1395.40375,594.618744 1365.19872,650.886763 C1377.23949,633.603071 1377.23949,634.531269 1363.23266,656.914717 C1334.09939,721.781906 1328.80061,821.09912 1330.79277,1017.38638 C1354.53331,924.129127 1356.80384,934.339308 1341.60606,1057.17088 C1360.58806,946.405886 1361.3449,947.334084 1344.55515,1063.19883 C1371.18474,978.892825 1382.5374,1006.73877 1391.74132,1172.9076 C1399.1871,1035.51292 1399.94394,1037.36932 1394.68953,1180.14114 C1407.51238,1051.29229 1414.32485,1061.50247 1421.23126,1222.33682" id="Stroke-40" stroke="#FFFFFF" stroke-width="2" mask="url(#mask-28)"></path>
                    <mask id="mask-30" fill="white">
                        <use xlink:href="#path-29"></use>
                    </mask>
                    <g id="Clip-44"></g>
                    <path d="M1332.42311,-86.9348359 C1356.69605,100.817268 1377.88855,140.729793 1409.09923,72.2031559 C1392.26859,188.067905 1393.02543,188.996103 1412.04744,78.2311102 C1398.32334,203.847275 1400.593,217.770249 1425.81069,131.277107 C1408.16231,248.400792 1410.43284,265.10836 1436.62312,197.584604 C1415.73075,313.37467 1415.73075,343.077015 1436.62312,315.732507 C1404.37809,452.60441 1374.86118,524.075676 1321.60894,579.756903 C1322.63895,578.839373 1321.12526,581.623968 1315.71165,589.40163 C1318.85386,585.336761 1317.34104,586.26496 1311.77954,593.018402 C1314.31366,590.905951 1312.04226,594.618744 1302.9323,607.485492 C1309.01576,599.259735 1307.50207,600.187933 1299.00019,611.102265 C1302.961,607.61352 1299.93276,613.182709 1285.23781,636.419673 C1254.52299,693.935958 1243.92631,777.473802 1230.18742,949.873293 C1263.60512,940.836696 1292.36519,1011.37976 1332.42311,1222.33682" id="Stroke-43" stroke="#FFFFFF" stroke-width="2" mask="url(#mask-30)"></path>
                    <mask id="mask-32" fill="white">
                        <use xlink:href="#path-31"></use>
                    </mask>
                    <g id="Clip-47"></g>
                    <path d="M1244.64966,-86.9348359 C1289.17818,130.519612 1319.45107,211.272861 1349.83357,218.079648 C1328.53406,346.789808 1324.74898,394.127919 1332.13908,401.329457 C1307.34157,452.60441 1302.80137,465.599185 1314.44459,451.964273 C1294.47522,488.804142 1289.93503,497.157926 1297.734,489.337589 C1278.58237,520.362883 1271.01393,531.501262 1268.24231,537.561223 C1261.93093,545.424236 1260.41724,546.352434 1264.3102,541.177996 C1258.14758,550.065227 1256.63302,552.849822 1258.41204,550.822722 C1229.38664,583.480365 1207.43904,614.110907 1175.83776,677.409761 C1179.43494,682.797579 1170.35369,713.428122 1142.41484,800.380028 C1164.29893,761.694431 1162.78525,776.545603 1137.4997,858.248389 C1161.27069,806.247948 1162.02753,822.027318 1138.48273,917.32234 C1169.59684,924.129127 1198.35604,1005.81057 1244.64966,1222.33682" id="Stroke-46" stroke="#FFFFFF" stroke-width="2" mask="url(#mask-32)"></path>
                    <mask id="mask-34" fill="white">
                        <use xlink:href="#path-33"></use>
                    </mask>
                    <g id="Clip-50"></g>
                    <path d="M1155.91789,-86.9348359 C1202.71346,132.376009 1232.98722,218.698447 1262.08482,231.341148 C1239.79881,364.425575 1232.23037,419.189272 1230.62795,441.113955 C1212.55243,471.168375 1211.79472,473.024771 1227.67887,445.936319 C1196.65871,513.865495 1173.19568,546.352434 1145.10459,579.756903 C1075.56368,665.161812 1056.64258,796.965965 1065.47939,1017.38638 C1089.18687,924.129127 1091.45653,934.339308 1076.29269,1057.17088 C1095.24162,946.405886 1095.9976,947.334084 1079.24177,1063.19883 C1105.83744,978.892825 1117.18923,1006.73877 1126.42707,1172.9076 C1133.83979,1035.51292 1134.59664,1037.36932 1129.37616,1180.14114 C1142.16508,1051.29229 1148.97667,1061.50247 1155.91789,1222.33682" id="Stroke-49" stroke="#FFFFFF" stroke-width="2" mask="url(#mask-34)"></path>
                    <mask id="mask-36" fill="white">
                        <use xlink:href="#path-35"></use>
                    </mask>
                    <g id="Clip-53"></g>
                    <path d="M1067.07998,-86.9348359 C1125.43613,148.155379 1159.49411,260.467369 1171.28086,315.732507 C1142.08757,422.902065 1129.22122,467.455582 1118.19827,494.159953 C1090.62218,540.783245 1071.70108,563.060003 1046.43728,593.018402 C1048.99576,590.905951 1046.72523,594.618744 1037.59004,607.485492 C1043.69699,599.259735 1042.18417,600.187933 1033.65706,611.102265 C1037.64224,607.61352 1034.61573,613.182709 1019.89555,636.419673 C989.204224,693.935958 978.60928,777.473802 964.845159,949.873293 C998.287221,940.836696 1027.04642,1011.37976 1067.07998,1222.33682" id="Stroke-52" stroke="#FFFFFF" stroke-width="2" mask="url(#mask-36)"></path>
                    <mask id="mask-38" fill="white">
                        <use xlink:href="#path-37"></use>
                    </mask>
                    <g id="Clip-56"></g>
                    <path d="M979.30401,-86.9348359 C1022.34842,127.735018 1051.10849,204.775473 1083.50489,204.818149 C1063.97484,339.364222 1060.19062,390.415126 1066.79343,401.329457 C1042.02723,452.60441 1037.4853,465.599185 1049.09894,451.964273 C1029.16089,488.804142 1024.61895,497.157926 1032.38835,489.337589 C1013.26629,520.362883 1005.69785,531.501262 1002.89666,537.561223 C996.615727,545.424236 995.102039,546.352434 998.965423,541.177996 C992.831508,550.065227 991.31869,552.849822 993.06639,550.822722 C964.071439,583.480365 942.123835,614.110907 910.492109,677.409761 C908.064989,695.792355 898.226018,743.130466 872.15405,858.248389 C893.684954,893.498585 925.472399,994.672195 979.30401,1222.33682" id="Stroke-55" stroke="#FFFFFF" stroke-width="2" mask="url(#mask-38)"></path>
                    <mask id="mask-40" fill="white">
                        <use xlink:href="#path-39"></use>
                    </mask>
                    <g id="Clip-59"></g>
                    <path d="M890.518737,-86.9348359 C937.450889,132.376009 967.725516,218.698447 996.68567,231.341148 C974.536241,364.425575 966.968672,419.189272 965.228801,441.113955 C932.152982,511.0809 910.205378,547.280632 879.705438,579.756903 C843.602243,626.177485 818.626394,688.366768 787.301755,813.641527 C810.301111,765.407224 809.545137,772.83281 784.351804,844.986889 C808.031449,789.540379 808.788293,797.894164 784.351804,877.537842 C808.788293,814.601732 808.031449,822.955517 784.351804,910.088795 C811.057955,859.155249 814.843044,886.072999 800.080238,1017.38638 C823.924301,924.129127 826.195703,934.339308 810.894407,1057.17088 C829.979053,946.405886 830.735897,947.334084 813.842618,1063.19883 C845.116801,993.743997 866.308431,1034.58472 890.518737,1222.33682" id="Stroke-58" stroke="#FFFFFF" stroke-width="2" mask="url(#mask-40)"></path>
                    <mask id="mask-42" fill="white">
                        <use xlink:href="#path-41"></use>
                    </mask>
                    <g id="Clip-62"></g>
                    <path d="M801.749644,-86.9348359 C860.10579,148.155379 894.163767,260.467369 905.950523,315.732507 C876.757227,422.902065 863.89088,467.455582 852.867927,494.159953 C825.29184,540.783245 806.370742,563.060003 781.106944,593.018402 C783.665424,590.905951 781.394893,594.618744 772.2597,607.485492 C778.366647,599.259735 776.853829,600.187933 768.326721,611.102265 C772.311896,607.61352 769.28539,613.182709 754.565211,636.419673 C723.873885,693.935958 713.27894,777.473802 699.51482,949.873293 C732.956882,940.836696 761.716081,1011.37976 801.749644,1222.33682" id="Stroke-61" stroke="#FFFFFF" stroke-width="2" mask="url(#mask-42)"></path>
                    <mask id="mask-44" fill="white">
                        <use xlink:href="#path-43"></use>
                    </mask>
                    <g id="Clip-65"></g>
                    <path d="M713.974453,-86.9348359 C757.017994,127.735018 785.778063,204.775473 818.174462,204.818149 C798.644409,339.364222 794.86106,390.415126 801.463001,401.329457 C776.695936,452.60441 772.154872,465.599185 783.769382,451.964273 C763.829589,488.804142 759.288526,497.157926 767.05792,489.337589 C747.935867,520.362883 740.367428,531.501262 737.566235,537.561223 C731.285301,545.424236 729.771613,546.352434 733.634997,541.177996 C727.501081,550.065227 725.987393,552.849822 727.735964,550.822722 C698.741012,583.480365 676.792538,614.110907 645.161682,677.409761 C654.087221,669.802803 648.032469,686.510372 622.552057,746.12844 C640.46403,717.140915 638.193498,729.207492 612.721786,794.352074 C633.652435,760.766233 632.138747,777.473802 606.824493,864.276343 C630.625059,814.601732 632.138747,833.165698 609.773574,936.611794 C637.437524,887.929395 644.24825,921.344533 638.280492,1070.43238 C670.737787,997.45679 688.902041,1037.36932 713.974453,1222.33682" id="Stroke-64" stroke="#FFFFFF" stroke-width="2" mask="url(#mask-44)"></path>
                    <mask id="mask-46" fill="white">
                        <use xlink:href="#path-45"></use>
                    </mask>
                    <g id="Clip-68"></g>
                    <path d="M625.196053,-86.9348359 C648.651255,97.1044748 666.816379,135.160604 697.940062,58.9416566 C703.901731,240.047007 712.226144,308.733679 728.413034,321.760461 C700.873485,410.835488 694.06189,440.537832 699.906117,441.113955 C666.816379,511.0809 644.867035,547.280632 614.382754,579.756903 C573.723707,631.746674 547.235039,705.074337 519.029119,844.986889 C542.693106,801.606957 542.693106,821.09912 520.012146,923.350294 C546.478195,866.580835 550.261545,889.785792 534.757554,1017.38638 C558.587698,924.129127 560.85736,934.339308 545.570853,1057.17088 C564.642449,946.405886 565.399293,947.334084 548.519064,1063.19883 C579.778458,993.743997 600.970088,1034.58472 625.196053,1222.33682" id="Stroke-67" stroke="#FFFFFF" stroke-width="2" mask="url(#mask-46)"></path>
                    <mask id="mask-48" fill="white">
                        <use xlink:href="#path-47"></use>
                    </mask>
                    <g id="Clip-71"></g>
                    <path d="M536.498295,-86.9348359 C594.696982,148.155379 628.755829,260.467369 640.698304,315.732507 C611.347549,422.902065 598.481202,467.455582 587.615707,494.159953 C559.883032,540.783245 540.961934,563.060003 515.854724,593.018402 C518.255747,590.905951 515.986085,594.618744 507.00748,607.485492 C512.957839,599.259735 511.444151,600.187933 503.075371,611.102265 C507.660802,606.685321 504.632556,611.326313 491.279045,631.597309 C433.490097,736.633078 441.814511,884.216602 487.346937,1135.53428 C499.334649,1006.73877 500.849206,1007.66697 491.279045,1141.56224 C505.3894,1016.02076 506.903088,1023.44634 504.058399,1166.87965 C513.715553,1031.80013 514.472397,1035.51292 509.955692,1180.14114 C522.79681,1051.29229 528.852431,1061.50247 536.498295,1222.33682" id="Stroke-70" stroke="#FFFFFF" stroke-width="2" mask="url(#mask-48)"></path>
                    <mask id="mask-50" fill="white">
                        <use xlink:href="#path-49"></use>
                    </mask>
                    <g id="Clip-74"></g>
                    <path d="M448.645853,-86.9348359 C466.710065,90.607087 481.08923,119.381233 508.61138,25.1851129 C509.092455,184.355112 518.175452,218.698447 547.932467,165.033651 C528.013553,277.174938 529.52811,294.810705 554.812787,237.369102 C531.797772,356.07179 527.256709,398.76891 536.135271,401.329457 C511.363856,452.60441 506.821923,465.599185 518.440782,451.964273 C498.49751,488.804142 493.955576,497.157926 501.73019,489.337589 C474.277634,536.142253 456.870224,557.490813 433.901316,584.579266 C422.056274,599.259735 410.703615,620.608295 384.749958,666.559444 C398.593242,646.597847 397.080424,649.382441 379.833952,677.409761 C388.754271,669.802803 382.69952,686.510372 357.224328,746.12844 C375.131081,717.140915 372.861419,729.207492 347.394056,794.352074 C368.319485,760.766233 366.806668,777.473802 341.495893,864.276343 C365.29298,814.601732 366.806668,833.165698 344.445844,936.611794 C372.104575,887.929395 378.91617,921.344533 372.952762,1070.43238 C405.404838,997.45679 423.569962,1037.36932 448.645853,1222.33682" id="Stroke-73" stroke="#FFFFFF" stroke-width="2" mask="url(#mask-50)"></path>
                    <mask id="mask-52" fill="white">
                        <use xlink:href="#path-51"></use>
                    </mask>
                    <g id="Clip-77"></g>
                    <path d="M359.833438,-86.9348359 C383.353016,97.1044748 401.51727,135.160604 432.577448,58.9416566 C438.602622,240.047007 446.927905,308.733679 463.05129,321.760461 C431.791026,443.322427 409.842553,502.727116 377.527927,546.000359 C357.620322,571.413787 340.969756,588.121356 317.56327,625.569355 C297.072809,664.233614 281.93593,720.853708 254.649532,844.986889 C275.881179,831.309301 281.179086,881.432007 275.293102,1036.67583 C295.559121,930.626515 294.802277,932.482912 276.27613,1043.90938 C310.696869,984.462014 331.887629,1030.87193 359.833438,1222.33682" id="Stroke-76" stroke="#FFFFFF" stroke-width="2" mask="url(#mask-52)"></path>
                    <mask id="mask-54" fill="white">
                        <use xlink:href="#path-53"></use>
                    </mask>
                    <g id="Clip-80"></g>
                    <path d="M271.083832,-86.9348359 C329.451287,148.155379 363.509264,260.467369 375.283841,315.732507 C346.100984,422.902065 333.234637,467.455582 322.201245,494.159953 C294.636467,540.783245 275.715369,563.060003 250.440262,593.018402 C253.010052,590.905951 250.73865,594.618744 241.593018,607.485492 C247.712144,599.259735 246.198456,600.187933 237.660909,611.102265 C242.414237,606.685321 239.385991,611.326313 225.864583,631.597309 C226.519644,635.459467 218.195231,654.023433 192.44166,705.138351 C209.113104,676.300191 209.113104,680.012984 189.492578,717.194259 C164.459313,814.601732 200.030977,965.898049 271.083832,1222.33682" id="Stroke-79" stroke="#FFFFFF" stroke-width="2" mask="url(#mask-54)"></path>
                    <mask id="mask-56" fill="white">
                        <use xlink:href="#path-55"></use>
                    </mask>
                    <g id="Clip-83"></g>
                    <path d="M183.299333,-86.9348359 C242.265304,151.868172 277.080994,266.036559 285.534158,327.788416 C255.888494,428.471255 243.778992,468.38378 236.3828,489.337589 C208.964171,536.142253 191.556761,557.490813 168.553926,584.579266 C156.742811,599.259735 145.389282,620.608295 119.402568,666.559444 C133.279779,646.597847 131.766961,649.382441 114.486562,677.409761 C123.440808,669.802803 117.386057,686.510372 91.8769372,746.12844 C109.817618,718.069113 107.547086,729.207492 82.0466655,794.352074 C103.006023,760.766233 101.492335,777.473802 76.1493725,864.276343 C99.9795168,814.601732 101.492335,833.165698 79.098454,936.611794 C107.547086,891.642188 115.115525,928.770119 112.521377,1083.69388 C143.11875,1003.95418 160.52616,1040.15391 183.299333,1222.33682" id="Stroke-82" stroke="#FFFFFF" stroke-width="2" mask="url(#mask-56)"></path>
                    <mask id="mask-58" fill="white">
                        <use xlink:href="#path-57"></use>
                    </mask>
                    <g id="Clip-86"></g>
                    <path d="M94.5225851,-86.9348359 C151.304148,146.298983 183.092462,254.89818 199.706491,302.471008 C170.225246,433.112246 147.519928,499.014323 112.217944,546.000359 C92.270322,571.413787 75.6197558,588.121356 52.2524172,625.569355 C31.7228084,664.233614 16.58593,720.853708 -10.661321,844.986889 C11.2880226,817.386327 12.8017104,851.729663 -2.79710374,983.629837 C32.4796523,957.544265 58.2123456,1018.80535 94.5225851,1222.33682" id="Stroke-85" stroke="#FFFFFF" stroke-width="2" mask="url(#mask-58)"></path>
                </g>
            </g>
        </g>
    </g>
</svg>